<?xml version="1.0" standalone="no"?>
<!DOCTYPE svg PUBLIC "-//W3C//DTD SVG 20010904//EN"
 "http://www.w3.org/TR/2001/REC-SVG-20010904/DTD/svg10.dtd">
<svg version="1.0" xmlns="http://www.w3.org/2000/svg"
 width="1153.276071pt" height="1071.419833pt" viewBox="0 0 1153.276071 1071.419833"
 preserveAspectRatio="xMidYMid meet">
<metadata>
Created by potrace 1.16, written by Peter Selinger 2001-2019
</metadata>
<g transform="translate(-318.000000,1218.000000) scale(0.100000,-0.100000)"
fill="#000000" stroke="none">
<path d="M13011 12157 c-15 -38 -51 -214 -51 -246 0 -16 7 -34 15 -41 13 -10
17 -7 30 23 8 20 15 49 15 64 1 15 7 57 15 93 19 88 19 130 0 130 -9 0 -19
-10 -24 -23z"/>
<path d="M3909 12164 l-26 -5 -6 -727 c-4 -400 -12 -869 -18 -1042 -7 -187 -9
-452 -5 -650 15 -726 17 -1822 5 -2290 -7 -261 -13 -808 -14 -1215 -1 -407 -6
-1156 -10 -1665 -4 -509 -8 -1321 -9 -1805 l-1 -880 -123 -12 c-68 -6 -133
-14 -145 -17 -12 -3 -85 -12 -162 -21 -141 -16 -215 -32 -215 -46 0 -19 57
-15 400 31 86 12 214 23 285 25 91 2 154 10 210 24 44 12 130 28 190 36 61 8
144 19 185 24 41 6 136 17 210 26 74 8 160 22 190 30 l55 14 -85 -5 c-47 -3
-148 -14 -225 -24 -185 -26 -417 -50 -425 -45 -4 3 -8 47 -8 98 l-1 93 87 12
c48 7 173 19 277 27 105 8 213 19 240 25 28 5 97 14 155 20 58 6 109 16 115
21 12 12 -68 12 -136 -1 -30 -6 -155 -19 -279 -30 -124 -11 -274 -25 -334 -31
-59 -6 -111 -8 -114 -5 -3 4 -5 57 -4 119 l1 112 208 21 c114 12 219 24 233
28 14 3 104 13 200 21 307 27 585 71 370 58 -116 -6 -427 -38 -818 -84 -101
-12 -185 -19 -188 -16 -5 5 -4 1961 2 2042 2 28 6 806 9 1730 5 1416 8 1680
20 1680 8 0 60 -61 117 -137 169 -224 295 -374 426 -510 131 -134 217 -198
270 -198 79 0 249 148 445 388 62 76 107 122 118 122 10 0 42 -11 71 -24 29
-12 61 -26 71 -29 30 -11 30 -31 2 -159 -15 -68 -38 -172 -50 -233 -13 -60
-37 -166 -55 -235 -17 -69 -38 -154 -46 -190 -7 -36 -18 -76 -23 -90 -5 -14
-17 -59 -26 -100 -9 -41 -23 -95 -30 -120 -29 -97 -65 -272 -59 -281 17 -27
226 -101 332 -116 39 -6 39 5 6 -233 -13 -102 -33 -255 -44 -340 -11 -85 -22
-170 -25 -187 -3 -18 -17 -117 -30 -220 -14 -104 -32 -237 -40 -297 -15 -107
-15 -110 5 -131 14 -15 52 -29 115 -45 l95 -22 0 -32 c0 -52 -37 -235 -69
-346 -16 -58 -53 -181 -81 -275 -57 -191 -102 -366 -130 -500 -99 -480 -185
-775 -264 -904 -45 -74 -56 -87 -88 -94 -47 -11 -89 -56 -98 -105 -14 -80 26
-297 82 -435 72 -183 226 -267 484 -267 123 0 176 26 216 104 24 47 24 51 -43
321 -33 132 -59 275 -65 356 -4 61 -1 91 16 150 48 163 125 391 150 444 5 11
25 63 45 115 20 52 47 122 60 155 12 33 35 92 49 130 15 39 35 90 46 115 10
25 23 61 28 80 6 19 27 78 47 130 141 372 217 609 249 775 l11 59 75 12 c120
19 136 28 149 79 15 59 14 75 -4 75 -18 0 -20 83 -5 175 6 33 19 143 30 245
11 102 24 217 30 255 6 39 17 126 25 195 31 260 31 258 99 321 118 108 205
179 220 179 19 0 20 -29 3 -51 -12 -15 -173 -159 -219 -195 -26 -20 -23 -6
-79 -454 -65 -532 -68 -564 -56 -572 7 -4 10 -33 9 -78 l-3 -70 35 -15 c19 -8
54 -15 76 -15 l40 0 0 -208 c0 -139 -7 -273 -20 -403 -45 -424 -47 -570 -20
-1239 11 -276 -8 -578 -42 -642 -15 -31 -48 -172 -48 -210 0 -31 -5 -40 -29
-52 -28 -15 -51 -59 -51 -97 0 -38 98 -74 290 -108 63 -11 180 -34 260 -51
389 -83 544 -85 666 -9 62 38 81 111 46 176 -21 38 -99 103 -168 141 -117 63
-356 235 -414 297 l-25 27 1 276 c0 184 6 331 17 437 9 88 21 219 27 290 14
169 56 569 75 712 9 62 22 209 31 325 8 117 18 244 22 282 l7 69 124 31 c101
25 127 36 142 56 19 27 19 19 -11 365 -32 379 -42 482 -55 595 -8 69 -22 199
-30 290 -9 91 -20 194 -25 229 -5 36 -7 68 -4 72 3 5 30 22 62 39 31 17 79 47
106 66 l48 36 -7 51 c-4 29 -15 117 -26 197 -11 80 -22 163 -25 185 l-6 40
143 1 c88 1 175 8 224 18 269 54 416 86 498 111 82 24 87 15 47 -82 -142 -342
-220 -672 -310 -1308 -23 -161 -102 -571 -150 -783 -46 -199 -61 -262 -119
-482 -11 -42 -31 -126 -45 -189 -23 -101 -24 -116 -12 -145 8 -19 24 -40 36
-49 l22 -15 -25 -98 c-14 -56 -22 -107 -18 -119 27 -77 460 -165 530 -108 19
16 48 94 70 188 5 20 14 31 31 35 36 8 59 63 73 169 7 56 16 92 24 95 7 3 37
1 66 -5 62 -12 162 -3 182 17 15 16 26 50 45 147 l11 57 42 0 c23 0 59 -3 81
-7 l38 -6 -5 -61 c-3 -34 -11 -119 -17 -189 -8 -92 -9 -132 -1 -141 20 -24
123 -50 196 -49 121 2 283 43 392 100 18 10 35 15 38 11 3 -3 8 -39 11 -79 7
-96 25 -116 111 -125 122 -13 333 46 371 104 12 18 14 41 9 109 -6 83 -5 87
18 109 30 28 32 73 10 209 -8 50 -20 167 -26 260 -5 94 -21 276 -35 405 -22
204 -38 310 -83 545 -75 392 -151 660 -293 1045 -54 145 -236 522 -299 620
-21 32 -51 86 -67 118 -42 85 -100 172 -114 172 -6 0 -21 9 -33 20 -12 12 -40
23 -61 27 -21 3 -46 11 -54 18 -30 25 -83 47 -138 56 -113 18 -232 -28 -355
-140 -63 -57 -68 -59 -134 -66 -37 -4 -79 -8 -93 -10 -32 -4 -343 -9 -482 -7
l-108 2 -16 38 c-37 88 -87 229 -88 251 -1 20 12 34 62 69 34 24 62 48 62 53
0 11 -46 110 -201 427 -71 145 -129 266 -129 268 0 9 -105 194 -164 288 -86
140 -201 231 -358 285 -30 11 -57 29 -77 54 -40 51 -72 75 -156 118 l-70 36 4
69 c2 38 5 72 7 75 2 4 37 22 77 42 80 38 141 91 163 142 7 18 16 61 19 96 7
67 -8 133 -56 265 l-23 61 22 59 c19 53 20 61 6 81 -9 15 -24 23 -43 23 -15 0
-49 3 -74 6 -43 6 -48 10 -96 80 -56 81 -61 99 -30 109 23 8 59 61 59 89 0 37
-48 85 -90 92 -38 6 -40 9 -40 41 0 68 -51 123 -115 123 -33 0 -86 -22 -104
-43 -21 -26 -38 -21 -79 22 -74 77 -170 74 -252 -8 -34 -34 -50 -61 -62 -101
-14 -52 -17 -55 -44 -52 -102 11 -150 6 -194 -20 -57 -33 -95 -73 -114 -120
-21 -48 -20 -82 1 -141 19 -53 12 -67 -33 -67 -31 0 -102 -58 -124 -101 -40
-77 -19 -158 54 -208 25 -18 46 -37 46 -43 0 -5 -11 -23 -25 -40 -67 -80 -51
-175 40 -236 46 -31 55 -33 115 -30 l65 3 5 -47 c7 -57 33 -95 86 -125 53 -31
104 -30 142 2 33 27 53 31 83 14 15 -8 27 -5 54 11 19 12 39 19 45 15 11 -7
14 -84 4 -109 -3 -9 -18 -16 -33 -16 -14 0 -41 -8 -58 -17 -28 -15 -51 -40
-134 -140 -5 -7 -19 -13 -29 -13 -33 0 -139 -39 -247 -92 -150 -72 -255 -176
-508 -497 -66 -84 -149 -190 -185 -235 -101 -125 -150 -192 -150 -204 0 -6 25
-30 55 -54 30 -23 55 -50 55 -58 0 -20 -186 -250 -202 -250 -22 0 -306 238
-430 360 l-126 125 -12 85 c-12 87 -54 268 -69 298 -5 9 -26 53 -47 96 -22 44
-61 104 -88 133 l-49 54 7 317 c4 174 11 839 16 1476 6 638 11 1161 13 1162 8
8 509 -44 637 -65 36 -7 157 -20 270 -31 335 -32 497 -49 640 -70 74 -11 214
-29 310 -40 96 -11 249 -30 340 -41 296 -36 323 -38 525 -54 110 -9 216 -20
236 -25 19 -6 89 -12 155 -15 100 -4 111 -3 72 6 -32 7 -48 16 -48 26 0 13 11
15 68 9 37 -4 88 -6 115 -6 41 1 47 -2 47 -20 0 -18 -5 -20 -55 -19 -30 1 -58
-1 -62 -4 -3 -4 12 -7 35 -7 42 0 64 -16 42 -30 -7 -4 -67 -11 -134 -15 -66
-4 -173 -13 -236 -21 -63 -7 -173 -21 -245 -29 -71 -8 -168 -22 -215 -31 -47
-8 -134 -24 -195 -34 -135 -24 -243 -45 -355 -70 -47 -10 -120 -26 -162 -35
-43 -9 -78 -21 -78 -26 0 -12 35 -12 58 0 9 5 85 21 167 36 83 15 206 38 275
51 186 35 599 90 810 109 102 8 210 20 240 25 30 5 105 11 165 15 61 3 143 11
184 16 40 6 100 8 133 4 l60 -7 -6 -49 c-8 -59 -9 -1639 -1 -2174 11 -766 17
-950 29 -929 16 27 12 1066 -9 2787 l-4 357 21 0 c12 0 60 -5 106 -12 l83 -12
-6 -151 c-9 -229 -10 -545 -6 -2153 2 -816 7 -1500 11 -1520 4 -26 9 1 14 93
19 323 24 835 23 2250 l-2 1520 -95 13 c-52 7 -178 26 -280 42 -102 16 -216
32 -255 35 -38 4 -90 11 -113 16 -24 5 -132 18 -240 29 -109 11 -210 22 -227
25 -16 3 -139 14 -273 25 -134 11 -273 24 -310 30 -37 5 -130 17 -207 25 -192
20 -597 72 -615 79 -12 4 -368 44 -630 71 -25 2 -128 13 -230 24 -102 11 -258
28 -348 36 -89 9 -176 21 -192 27 -24 8 -35 7 -55 -6 l-25 -16 -1 -228 c-1
-125 -3 -243 -4 -262 -2 -19 -6 -451 -9 -960 -3 -509 -10 -1098 -15 -1310 -5
-212 -7 -397 -4 -412 4 -23 1 -27 -22 -30 -16 -2 -37 -15 -48 -29 -25 -35 -17
-75 29 -134 l34 -45 0 -1747 c0 -962 -4 -1928 -8 -2148 -8 -356 -12 -890 -16
-2202 -1 -254 -5 -405 -11 -411 -5 -5 -57 -14 -115 -20 -80 -8 -106 -8 -113 1
-7 11 -4 1521 7 4082 2 506 9 1165 16 1465 10 508 9 1129 -5 2275 -4 308 -2
568 6 755 7 157 14 597 15 979 2 381 5 695 7 697 3 3 186 -16 612 -66 99 -11
200 -25 225 -30 86 -19 353 -58 650 -95 264 -33 775 -102 810 -110 39 -9 341
-43 610 -70 312 -31 504 -52 605 -65 44 -5 172 -21 285 -34 113 -14 214 -27
225 -31 11 -3 85 -14 165 -25 176 -23 390 -62 408 -73 7 -5 11 -16 8 -25 -3
-10 -7 -127 -10 -262 -3 -135 -8 -319 -11 -410 -3 -91 -8 -583 -10 -1095 -3
-511 -9 -1057 -15 -1212 -8 -248 -11 -527 -10 -965 0 -71 4 -128 9 -128 9 0
19 235 26 640 3 140 7 318 10 395 9 264 20 1110 18 1400 -4 471 17 1647 29
1662 6 8 8 16 5 19 -15 15 -262 62 -517 99 -91 13 -210 30 -265 39 -55 8 -145
19 -200 25 -55 6 -235 26 -400 45 -165 19 -340 37 -390 41 -110 8 -443 48
-625 75 -252 38 -693 97 -900 120 -85 10 -401 58 -560 86 -47 8 -170 23 -275
34 -104 11 -213 24 -242 29 -61 12 -246 21 -284 15z m761 -409 c0 -10 -10 -15
-26 -15 -22 0 -25 2 -14 15 7 8 19 15 26 15 8 0 14 -7 14 -15z m123 -1 c3 -3
29 -7 59 -8 172 -8 378 -56 236 -56 -63 0 -214 15 -315 31 -49 8 -73 16 -73
25 0 10 13 14 43 14 24 0 46 -3 50 -6z m1927 -234 c0 -5 -7 -7 -15 -4 -8 4
-15 8 -15 10 0 2 7 4 15 4 8 0 15 -4 15 -10z m220 -10 c255 -22 400 -43 400
-58 0 -17 -107 -13 -320 13 -69 9 -155 18 -192 22 -48 4 -68 10 -68 19 0 17
25 17 180 4z m810 -105 c0 -11 -11 -15 -40 -15 -29 0 -40 4 -40 15 0 11 11 15
40 15 29 0 40 -4 40 -15z m-1276 -764 c3 -5 14 -7 25 -4 11 3 21 -2 25 -13 9
-24 0 -29 -29 -16 -14 7 -39 12 -55 12 -20 0 -30 5 -30 15 0 17 55 22 64 6z
m450 -187 c25 -10 19 -34 -9 -34 -24 0 -34 18 -18 33 8 8 8 8 27 1z m-112
-158 c55 -24 101 -74 142 -155 21 -40 63 -61 126 -61 64 0 69 -12 40 -86 l-23
-55 27 -62 c38 -89 35 -104 -20 -128 -30 -14 -62 -20 -97 -18 -56 3 -73 -11
-31 -25 33 -11 127 9 144 30 7 7 20 14 30 14 20 0 30 -36 30 -109 0 -117 -47
-180 -184 -245 l-91 -44 0 -148 c0 -156 9 -194 43 -194 20 0 57 -67 67 -123 6
-31 2 -40 -30 -75 -74 -82 -192 -92 -332 -27 -40 19 -73 39 -73 46 0 15 -28
78 -82 182 -33 65 -39 84 -32 110 14 57 10 289 -5 325 -13 30 -12 35 8 56 26
28 27 40 2 26 -34 -17 -96 -12 -132 13 -61 41 -76 140 -28 188 21 21 88 26
106 8 18 -18 43 -2 43 26 0 14 7 28 15 31 9 4 27 25 40 49 31 53 33 131 5 194
-32 71 -28 82 29 80 92 -4 172 64 187 159 3 23 10 42 14 42 4 0 32 -11 62 -24z
m-322 -275 c0 -26 -17 -36 -35 -21 -23 19 -18 40 10 40 18 0 25 -5 25 -19z
m-670 -156 c35 -18 40 -45 8 -45 -25 0 -58 27 -58 47 0 17 14 17 50 -2z m50
-150 c0 -8 -7 -15 -15 -15 -8 0 -15 7 -15 15 0 8 7 15 15 15 8 0 15 -7 15 -15z
m540 -571 c3 -16 26 -72 52 -124 59 -124 88 -209 88 -265 0 -52 -23 -63 -35
-17 -6 26 -32 62 -44 62 -4 0 -40 -25 -81 -55 -41 -30 -83 -55 -92 -55 -21 0
-23 14 -37 209 l-10 143 30 44 c31 45 96 97 114 91 5 -2 12 -17 15 -33z m645
-34 c24 -16 62 -51 84 -77 43 -51 121 -190 121 -217 0 -20 -29 -20 -54 -1 -31
24 -55 19 -62 -12 -10 -47 -13 -53 -27 -53 -9 0 -25 32 -42 83 -29 84 -68 169
-104 222 -12 17 -21 45 -21 64 0 32 1 33 30 27 17 -3 51 -19 75 -36z m-825
-280 c15 -201 21 -217 68 -183 92 67 163 113 176 113 9 0 18 -13 21 -33 6 -30
9 -33 36 -29 l30 4 -5 -138 c-3 -77 -8 -229 -11 -339 -5 -169 -31 -544 -50
-705 -51 -447 -118 -870 -205 -1295 -17 -82 -36 -181 -42 -219 l-12 -69 -105
6 c-135 8 -325 39 -466 77 -140 36 -185 55 -185 78 0 9 16 80 36 157 19 77 46
185 59 240 14 55 36 147 50 205 57 235 77 320 101 430 36 168 53 262 54 291 0
14 9 34 20 44 11 10 20 23 20 29 0 9 49 138 81 211 57 132 139 413 138 475 0
35 0 35 -18 -15 -11 -27 -31 -88 -46 -135 -33 -105 -162 -455 -182 -492 -7
-16 -18 -28 -23 -28 -6 0 -76 59 -157 131 -152 135 -305 258 -405 324 -36 23
-58 45 -58 56 0 10 55 87 122 171 67 84 151 191 187 237 298 379 380 453 591
534 181 70 164 82 180 -133z m1133 69 c166 -93 202 -151 571 -913 64 -131 116
-245 116 -252 0 -27 -279 -194 -324 -194 -19 0 -21 9 -51 180 -27 161 -56 312
-85 440 -10 47 -24 108 -30 137 -14 61 -40 93 -40 47 1 -16 5 -49 10 -74 6
-25 21 -109 35 -188 13 -79 29 -160 34 -180 6 -20 17 -83 25 -140 8 -56 17
-106 20 -111 3 -4 10 -41 16 -82 6 -41 22 -132 35 -204 33 -178 51 -292 80
-483 14 -90 27 -167 29 -170 2 -4 9 -52 16 -107 6 -55 18 -134 27 -175 l15
-75 -39 -32 c-68 -59 -318 -171 -337 -152 -3 2 -10 72 -16 154 -53 736 -187
1719 -296 2160 -32 132 -39 191 -25 199 6 4 11 29 11 57 0 45 2 49 25 49 13 0
41 -11 61 -25 20 -14 43 -25 50 -25 23 0 16 51 -16 115 -17 33 -30 65 -30 72
0 23 40 14 113 -28z m-303 -131 c6 -24 18 -65 26 -93 7 -27 23 -95 35 -150 11
-55 32 -152 45 -215 44 -205 104 -581 144 -900 11 -85 24 -182 29 -215 19
-117 44 -416 35 -425 -8 -8 -129 -32 -314 -61 -69 -12 -614 -18 -624 -8 -4 3
0 48 8 100 58 378 84 562 96 674 5 55 14 141 20 191 19 169 40 628 40 867 0
262 -3 251 66 218 62 -30 130 -44 181 -37 52 7 140 51 154 78 18 34 47 22 59
-24z m-2783 -128 c29 -52 60 -117 68 -143 13 -44 54 -237 70 -330 4 -24 24
-58 56 -97 51 -62 224 -219 364 -331 44 -36 115 -93 158 -128 42 -35 80 -61
84 -58 3 4 -1 15 -10 25 -28 31 -20 60 36 125 29 34 72 88 96 120 24 31 51 57
60 57 10 0 62 -37 117 -82 158 -130 194 -164 194 -183 0 -41 -310 -400 -420
-487 -97 -77 -138 -84 -211 -38 -99 64 -388 385 -616 685 -50 66 -101 129
-112 139 -17 16 -21 31 -21 89 0 67 1 69 23 65 l23 -4 -21 40 c-16 34 -20 60
-20 151 l0 110 -47 68 c-52 74 -63 104 -53 136 12 40 49 25 114 -45 34 -36 64
-64 66 -62 2 2 -16 30 -41 63 -43 59 -44 61 -44 138 0 105 17 101 87 -23z
m3675 -1103 c35 -87 88 -237 88 -246 0 -6 10 -16 22 -22 30 -16 525 -5 666 15
97 13 105 16 145 53 180 165 316 209 448 143 49 -25 60 -35 57 -53 -2 -18 -10
-23 -48 -25 -25 -2 -62 1 -82 8 -42 12 -78 0 -78 -25 0 -12 -15 -15 -70 -15
-78 0 -91 -11 -83 -65 4 -27 1 -31 -29 -40 -28 -8 -34 -16 -38 -45 -3 -19 -23
-60 -46 -90 -22 -30 -51 -74 -64 -97 -13 -24 -30 -43 -38 -43 -7 0 -50 -9 -95
-19 -276 -65 -487 -106 -636 -122 -104 -11 -224 -9 -237 4 -4 4 -13 44 -20 89
-7 46 -24 146 -39 223 -34 185 -55 307 -55 323 0 7 17 19 38 27 21 9 62 28 92
44 29 16 60 26 69 24 9 -2 24 -23 33 -46z m1528 -122 c36 -19 65 -57 124 -165
109 -196 149 -339 167 -585 13 -189 39 -345 80 -471 16 -50 29 -98 29 -106 0
-8 -22 -22 -52 -32 -106 -37 -195 -85 -232 -126 -31 -35 -47 -70 -31 -70 3 0
29 24 59 53 40 41 67 58 112 72 32 10 66 22 74 26 8 4 37 15 63 24 27 10 51
23 53 30 3 7 -8 48 -25 91 -46 121 -70 233 -86 419 -9 94 -20 194 -25 224 -13
72 -13 73 10 69 20 -3 61 -82 136 -263 65 -156 169 -460 198 -580 8 -33 28
-110 45 -171 29 -109 94 -420 125 -604 25 -148 54 -405 71 -640 9 -118 25
-282 37 -363 23 -165 19 -189 -29 -208 -16 -6 -46 -19 -68 -29 -44 -22 -164
-40 -257 -40 l-60 0 7 38 c8 43 15 181 21 452 2 107 9 295 14 418 13 286 13
537 0 660 -23 219 -37 182 -29 -80 7 -243 -20 -1136 -36 -1184 -11 -34 -202
-104 -350 -128 -16 -2 6 -3 50 0 54 3 110 14 170 35 50 16 97 31 105 32 20 3
24 -36 15 -140 -7 -80 -7 -82 -44 -106 -133 -88 -413 -143 -545 -106 l-39 11
7 116 c10 168 9 165 65 159 l46 -5 -48 16 -49 16 6 56 c29 260 44 367 79 585
74 444 76 482 72 1250 -2 480 -6 641 -19 755 -9 80 -21 199 -26 265 -14 174
-19 201 -39 219 -17 16 -18 14 -13 -35 l5 -52 -34 7 c-50 9 -114 59 -114 87 0
20 6 24 38 27 23 2 37 8 37 17 0 7 9 16 19 20 11 3 26 17 35 30 19 29 36 31
76 10z m-230 -40 c18 -21 5 -45 -25 -45 -21 0 -25 5 -25 30 0 23 5 30 19 30
10 0 24 -7 31 -15z m-42 -74 c49 -27 66 -42 82 -77 27 -55 23 -78 -13 -82 -24
-3 -26 -6 -16 -23 5 -11 9 -32 7 -47 -2 -22 -9 -28 -36 -30 -31 -3 -32 -4 -26
-41 7 -43 1 -49 -53 -61 -29 -7 -36 -5 -49 15 -9 14 -37 31 -65 40 -27 9 -49
17 -49 18 0 1 -6 20 -14 41 -12 36 -14 38 -24 19 -21 -38 -3 -63 67 -97 l66
-31 27 -75 c59 -169 129 -457 148 -610 6 -52 18 -149 28 -215 12 -92 16 -201
16 -460 1 -325 -1 -348 -28 -520 -15 -99 -44 -254 -63 -345 -19 -91 -41 -196
-48 -235 -8 -38 -21 -101 -29 -140 -9 -38 -24 -113 -34 -165 l-18 -95 -106 0
c-59 0 -110 3 -114 8 -7 7 16 207 51 452 8 55 22 163 30 240 9 77 20 167 25
200 5 33 16 137 25 230 8 94 20 204 25 245 18 136 30 313 30 450 -1 198 -17
145 -41 -128 -10 -125 -23 -254 -28 -287 -6 -33 -15 -114 -21 -180 -12 -129
-15 -161 -54 -480 -13 -115 -27 -223 -31 -240 -3 -16 -14 -104 -25 -195 -32
-269 -58 -458 -71 -517 -10 -44 -18 -57 -38 -65 -44 -16 -303 18 -451 60 -131
37 -152 61 -131 156 6 28 18 80 25 116 8 36 28 119 46 185 33 125 64 252 106
420 38 158 100 487 149 790 101 638 119 732 176 935 64 226 181 513 251 616
22 32 68 48 68 24 0 -5 15 -10 33 -10 17 0 45 -7 61 -15 33 -18 36 -18 36 -5
0 5 -27 24 -60 42 -54 30 -60 36 -60 66 0 31 1 32 43 32 23 -1 59 -7 80 -14
57 -21 49 8 -8 30 -61 23 -80 57 -51 87 21 20 77 8 154 -32z m180 -107 c28
-13 32 -21 32 -54 0 -22 7 -90 15 -152 26 -209 36 -470 37 -1043 1 -514 -10
-848 -29 -878 -3 -4 -16 -83 -29 -175 -41 -286 -58 -367 -74 -367 -8 1 -39 5
-68 9 -48 8 -53 11 -49 30 52 228 113 596 122 741 9 127 9 470 0 595 -21 297
-107 729 -184 933 -17 45 -13 65 16 79 14 7 36 31 47 53 11 22 33 51 48 63 16
13 28 34 28 45 0 12 7 31 15 41 8 11 15 37 15 58 0 43 10 47 58 22z m-1998
-503 c0 -25 -3 -28 -25 -23 -14 2 -28 9 -31 14 -11 17 6 38 31 38 21 0 25 -5
25 -29z m-110 -5 c0 -15 -24 -28 -34 -19 -13 14 -5 33 14 33 11 0 20 -6 20
-14z m-810 -35 c0 -20 -13 -41 -25 -41 -18 0 -28 17 -21 35 6 16 46 21 46 6z
m540 -6 c0 -8 -9 -15 -20 -15 -11 0 -20 7 -20 15 0 8 9 15 20 15 11 0 20 -7
20 -15z m-190 -5 c23 -14 9 -19 -57 -22 -63 -3 -80 2 -68 21 8 13 104 14 125
1z m508 -37 c-2 -10 -13 -19 -26 -21 -24 -4 -25 -2 -16 22 9 23 46 21 42 -1z
m-818 -68 c0 -8 -7 -15 -15 -15 -8 0 -15 7 -15 15 0 8 7 15 15 15 8 0 15 -7
15 -15z m200 -15 c0 -13 -7 -20 -20 -20 -19 0 -27 20 -13 33 13 14 33 6 33
-13z m930 -380 c0 -11 -7 -20 -15 -20 -8 0 -15 9 -15 20 0 11 7 20 15 20 8 0
15 -9 15 -20z m-152 -42 c3 -14 -3 -18 -27 -18 -29 0 -41 17 -24 34 13 13 48
1 51 -16z m-518 -19 c0 -14 -94 -121 -188 -212 -50 -48 -97 -99 -106 -112 -16
-24 -56 -35 -56 -15 0 11 144 178 247 288 51 54 73 71 86 66 9 -3 17 -10 17
-15z m610 -129 c0 -20 -5 -30 -15 -30 -10 0 -15 10 -15 30 0 20 5 30 15 30 10
0 15 -10 15 -30z m-1610 -175 c0 -8 -9 -15 -20 -15 -11 0 -20 7 -20 15 0 8 9
15 20 15 11 0 20 -7 20 -15z m1670 -265 c0 -64 -3 -80 -15 -80 -12 0 -15 16
-15 80 0 64 3 80 15 80 12 0 15 -16 15 -80z m-660 -180 c0 -11 -4 -20 -10 -20
-5 0 -10 9 -10 20 0 11 5 20 10 20 6 0 10 -9 10 -20z m-10 -115 c0 -24 -5 -35
-15 -35 -10 0 -15 11 -15 35 0 24 5 35 15 35 10 0 15 -11 15 -35z m-8 -110
c-3 -30 -9 -45 -18 -45 -10 0 -14 13 -14 45 0 36 3 45 18 45 14 0 17 -7 14
-45z m778 -70 c0 -19 -5 -35 -11 -35 -6 0 -9 7 -5 15 3 8 1 15 -4 15 -6 0 -10
9 -10 20 0 11 7 20 15 20 10 0 15 -11 15 -35z m-260 -55 c0 -45 -4 -62 -15
-67 -24 -8 -26 -2 -19 65 5 42 11 62 20 62 10 0 14 -16 14 -60z m-1660 20 c0
-11 -4 -20 -10 -20 -5 0 -10 9 -10 20 0 11 5 20 10 20 6 0 10 -9 10 -20z
m1648 -148 c2 -13 -3 -25 -13 -28 -22 -9 -29 1 -21 31 8 31 30 28 34 -3z
m-798 -67 c0 -24 -5 -35 -15 -35 -10 0 -15 10 -15 29 0 25 6 33 28 40 1 1 2
-15 2 -34z m496 5 c22 0 16 -17 -8 -23 -13 -3 -33 -9 -45 -12 -16 -5 -23 -3
-23 5 0 18 32 40 48 35 8 -3 20 -5 28 -5z m-616 -108 c0 -32 -16 -52 -42 -52
-23 0 -23 24 0 55 23 33 42 31 42 -3z m110 -4 c0 -52 -11 -78 -31 -78 -22 0
-25 30 -8 79 15 42 39 41 39 -1z m1110 7 c0 -18 -5 -25 -20 -25 -20 0 -28 28
-13 43 15 16 33 6 33 -18z m-800 0 c0 -8 -7 -15 -15 -15 -8 0 -15 7 -15 15 0
8 7 15 15 15 8 0 15 -7 15 -15z m-1155 -5 c8 -13 -13 -40 -31 -40 -8 0 -14 10
-14 25 0 18 5 25 19 25 11 0 23 -5 26 -10z m1045 -64 c0 -8 -7 -16 -15 -20
-10 -4 -15 1 -15 14 0 11 7 20 15 20 8 0 15 -6 15 -14z m-1152 -23 c-2 -10
-10 -18 -18 -18 -8 0 -16 8 -18 18 -2 12 3 17 18 17 15 0 20 -5 18 -17z m952
-31 c0 -15 -15 -22 -78 -35 -96 -21 -92 -21 -92 4 0 18 5 21 35 17 19 -2 35 0
35 4 0 4 13 8 29 8 17 0 33 5 36 10 10 17 35 11 35 -8z m840 -29 c0 -10 -5
-36 -9 -58 -5 -22 -14 -121 -21 -220 -6 -99 -16 -218 -21 -265 -24 -201 -60
-537 -74 -690 -8 -91 -21 -230 -30 -310 -33 -312 -49 -699 -31 -788 9 -50 77
-130 155 -183 60 -41 65 -63 16 -79 -50 -17 -165 -133 -199 -202 -32 -65 -30
-65 -141 -44 -38 8 -110 21 -160 30 -121 22 -121 22 -135 57 -16 37 -8 137 15
200 22 61 41 140 56 234 14 93 14 548 -1 755 -15 215 -5 656 18 860 31 260 44
451 40 579 l-3 115 150 3 c83 2 179 7 215 12 116 15 160 13 160 -6z m-1040
-13 c0 -18 -49 -30 -121 -30 -53 0 -69 3 -69 14 0 8 6 17 13 19 24 10 177 7
177 -3z m-274 -15 c-8 -8 -22 -15 -30 -15 -9 0 -16 7 -16 15 0 10 10 15 31 15
27 0 29 -2 15 -15z m3154 -35 c0 -21 -15 -27 -25 -10 -7 12 2 30 16 30 5 0 9
-9 9 -20z m-3072 -25 c205 1 195 5 167 -76 -9 -23 -22 -72 -31 -108 -25 -112
-118 -388 -205 -616 -21 -55 -68 -181 -104 -280 -36 -99 -72 -195 -80 -213 -9
-19 -31 -75 -51 -125 -19 -51 -44 -114 -55 -141 -12 -27 -27 -68 -34 -90 -7
-23 -30 -86 -50 -141 -81 -223 -99 -348 -70 -470 8 -33 15 -80 15 -104 0 -42
-1 -43 -27 -37 -108 25 -222 7 -348 -54 -47 -22 -89 -38 -94 -36 -16 10 -44
198 -38 262 5 63 7 69 107 237 57 97 144 396 230 792 57 261 96 412 155 605
50 163 75 247 86 290 18 74 48 243 49 276 0 17 3 34 7 38 4 3 48 3 97 -1 50
-5 173 -8 274 -8z m4114 -527 c2 -40 2 -78 0 -85 -12 -39 -250 -91 -346 -76
l-51 8 -12 70 c-19 112 -20 108 32 100 60 -8 220 11 281 35 87 34 92 31 96
-52z m-2017 -92 c55 -15 147 -32 205 -38 58 -6 108 -14 112 -17 4 -4 -2 -46
-14 -93 l-22 -87 -37 -6 c-82 -14 -377 38 -419 74 -18 14 -19 22 -10 82 5 37
14 79 20 94 12 32 10 32 165 -9z m-3025 -1936 c0 -11 -7 -20 -15 -20 -8 0 -15
9 -15 20 0 11 7 20 15 20 8 0 15 -9 15 -20z m429 7 c43 -11 45 -14 58 -62 26
-103 27 -148 3 -178 -18 -22 -29 -27 -66 -27 -41 0 -46 3 -58 33 -30 74 -30
75 -34 25 -3 -47 -4 -48 -38 -48 -37 0 -39 3 -49 63 -8 51 -25 47 -25 -8 0
-34 -4 -45 -16 -45 -32 0 -51 20 -58 60 -8 49 -26 53 -26 5 0 -45 -26 -47 -69
-4 -35 34 -49 74 -35 98 15 25 133 80 194 90 77 12 167 11 219 -2z m2013 -88
c109 -60 139 -88 141 -129 2 -42 -27 -54 -52 -21 -16 21 -16 21 -16 -10 0 -18
-7 -36 -16 -42 -13 -8 -25 -1 -63 38 -25 27 -49 45 -52 42 -4 -4 5 -16 19 -28
33 -25 35 -64 5 -80 -30 -16 -117 -6 -231 27 -61 17 -97 33 -97 41 0 56 98
160 177 189 66 23 107 18 185 -27z"/>
<path d="M6821 10056 c-16 -20 25 -72 45 -55 11 9 11 16 -2 40 -16 32 -26 36
-43 15z"/>
<path d="M7166 7728 c-10 -39 -7 -44 9 -14 17 33 18 36 6 36 -5 0 -11 -10 -15
-22z"/>
<path d="M7130 7623 c-13 -32 -33 -80 -45 -108 -12 -27 -25 -61 -29 -75 l-6
-25 12 25 c7 14 15 27 19 30 4 3 14 27 23 55 10 27 21 54 25 60 12 15 34 86
28 91 -2 3 -15 -21 -27 -53z"/>
<path d="M7016 7364 c-9 -24 -2 -26 12 -4 7 11 8 20 3 20 -5 0 -12 -7 -15 -16z"/>
<path d="M6996 7313 c-6 -14 -5 -15 5 -6 7 7 10 15 7 18 -3 3 -9 -2 -12 -12z"/>
<path d="M6956 7245 c-9 -26 -7 -32 5 -12 6 10 9 21 6 23 -2 3 -7 -2 -11 -11z"/>
<path d="M12130 12026 c0 -17 14 -42 103 -178 47 -75 77 -98 77 -60 -1 26
-144 246 -163 250 -10 2 -17 -3 -17 -12z"/>
<path d="M13700 11745 c-173 -124 -198 -149 -165 -161 10 -4 42 14 93 53 42
33 99 74 125 92 45 30 58 59 32 67 -5 2 -44 -21 -85 -51z"/>
<path d="M12658 11610 c-263 -66 -455 -291 -475 -555 -13 -183 97 -401 257
-511 224 -152 575 -112 772 88 223 227 250 505 73 754 -78 108 -188 174 -358
214 -131 30 -181 32 -269 10z m265 -51 c194 -30 352 -182 393 -375 41 -196
-10 -368 -151 -510 -82 -84 -158 -126 -268 -148 -175 -36 -345 -5 -457 85 -46
37 -108 115 -139 178 -31 60 -64 215 -56 266 24 162 69 258 166 356 67 68 171
128 257 148 54 13 172 13 255 0z"/>
<path d="M11611 11326 c-19 -23 10 -32 148 -51 111 -15 125 -16 139 -2 14 14
13 17 -9 26 -24 10 -209 41 -246 41 -12 0 -26 -6 -32 -14z"/>
<path d="M5833 11098 c-29 -5 -53 -14 -53 -19 0 -13 82 1 100 17 8 8 12 13 10
13 -3 -1 -29 -6 -57 -11z"/>
<path d="M5744 11069 c-3 -6 -16 -9 -28 -6 -11 2 -32 1 -46 -3 -20 -7 -16 -8
22 -9 50 -1 78 6 78 20 0 13 -17 11 -26 -2z"/>
<path d="M5525 11035 c-140 -24 -338 -63 -485 -93 l-35 -7 -5 -380 c-7 -488
-4 -2524 3 -2531 3 -3 11 5 19 18 11 19 13 284 15 1453 l2 1430 73 13 c40 7
119 22 176 33 57 11 138 27 180 34 110 20 162 32 169 39 9 9 -31 6 -112 -9z"/>
<path d="M13714 11016 c-14 -11 -16 -18 -8 -26 24 -24 266 -41 279 -20 14 22
-18 39 -83 44 -37 4 -90 8 -118 11 -34 3 -57 0 -70 -9z"/>
<path d="M11945 10585 c-86 -57 -172 -126 -179 -142 -13 -31 45 -9 120 45 141
101 158 116 141 130 -12 10 -27 4 -82 -33z"/>
<path d="M13344 10365 c-7 -16 -3 -22 95 -143 69 -85 111 -115 111 -78 0 16
-178 236 -191 236 -6 0 -12 -7 -15 -15z"/>
<path d="M12591 10136 c-19 -23 -44 -241 -31 -267 11 -19 14 -20 27 -6 16 15
48 249 39 274 -7 17 -21 17 -35 -1z"/>
<path d="M12935 8635 c-33 -7 -87 -27 -120 -46 -62 -34 -175 -139 -175 -162 0
-7 -8 -22 -19 -33 -31 -34 -44 -66 -50 -124 l-6 -55 -45 0 c-52 -1 -165 -38
-195 -64 -11 -10 -28 -21 -37 -24 -10 -4 -18 -13 -18 -21 0 -8 -8 -17 -18 -21
-25 -7 -82 -97 -93 -143 -9 -43 2 -112 25 -147 56 -85 239 -119 591 -111 861
21 981 22 1250 13 106 -3 219 -2 256 3 37 5 123 14 193 19 98 8 134 14 163 31
84 47 98 110 44 197 -91 147 -311 221 -531 178 -47 -9 -97 -19 -112 -22 -27
-5 -28 -4 -26 38 2 74 -12 126 -52 187 -40 62 -68 86 -139 121 -106 50 -244
47 -368 -9 -36 -16 -70 -30 -75 -30 -4 0 -14 12 -20 28 -22 50 -80 122 -122
151 -82 57 -180 72 -301 46z m228 -41 c87 -30 167 -135 167 -221 0 -35 27 -40
58 -10 102 94 316 116 448 45 44 -24 99 -89 114 -134 15 -45 18 -142 6 -203
-8 -43 -8 -44 15 -38 13 3 51 16 84 28 53 20 79 23 215 24 142 0 160 -2 218
-25 165 -65 240 -222 134 -279 -10 -5 -116 -17 -237 -26 -173 -13 -279 -16
-495 -10 -151 4 -426 2 -610 -4 -875 -28 -1042 -13 -1078 95 -23 68 4 168 64
234 46 51 108 88 178 106 52 14 65 13 146 -7 12 -3 14 6 12 47 -10 147 120
313 292 375 66 24 204 25 269 3z"/>
<path d="M4976 6823 c-3 -71 -8 -573 -11 -1118 -3 -544 -8 -1134 -10 -1310 -3
-176 -8 -583 -10 -905 -5 -641 -6 -630 53 -630 15 0 43 -5 62 -10 56 -16 312
-61 318 -56 9 10 -87 38 -193 57 -27 5 -83 16 -122 25 l-73 15 -2 267 c-4 395
-4 480 4 1152 22 1746 21 2640 -2 2640 -4 0 -10 -57 -14 -127z"/>
<path d="M5233 6768 c-74 -81 -73 -221 1 -280 30 -25 48 -22 78 10 46 49 61
119 42 209 -6 34 -53 83 -78 83 -12 0 -32 -10 -43 -22z m78 -30 c7 -13 12 -58
12 -101 0 -62 -4 -84 -20 -105 -28 -37 -45 -38 -66 -3 -22 38 -23 159 -2 201
19 37 58 41 76 8z"/>
<path d="M8450 6414 c0 -230 3 -315 11 -307 17 17 18 615 2 620 -10 4 -13 -63
-13 -313z"/>
<path d="M8215 6645 c-11 -49 -13 -1640 -2 -1651 4 -4 9 -5 12 -2 8 8 14 1568
6 1633 l-7 60 -9 -40z"/>
<path d="M11449 5400 c-63 -19 -128 -77 -149 -132 -6 -18 -16 -41 -21 -50 -5
-10 -9 -30 -9 -44 0 -26 -1 -26 -47 -20 -32 4 -41 3 -28 -3 27 -12 61 -51 70
-79 13 -45 30 -17 31 55 2 111 55 207 131 239 44 19 80 17 131 -6 56 -25 92
-97 92 -182 0 -73 20 -78 45 -11 25 64 100 138 156 153 69 19 163 9 195 -20
46 -43 64 -95 64 -192 0 -71 -5 -98 -24 -143 -14 -30 -21 -57 -16 -60 4 -3 23
7 41 22 26 22 44 28 95 31 60 4 65 3 95 -27 l31 -32 -4 -92 c-4 -93 -21 -139
-85 -239 -24 -38 -13 -43 38 -16 56 29 150 36 183 15 66 -44 53 -168 -29 -265
-43 -51 -21 -76 25 -27 12 13 45 32 73 41 153 51 237 -110 154 -297 -29 -65
-22 -96 12 -53 31 39 55 129 56 203 0 67 12 84 41 61 21 -18 27 -7 28 53 1 50
19 99 51 142 12 14 28 19 66 20 44 0 54 -4 71 -26 11 -14 22 -45 25 -67 5 -35
8 -40 20 -30 8 6 20 25 27 43 19 45 69 83 120 90 52 8 83 -5 97 -43 13 -32 3
-121 -18 -175 -9 -21 -13 -40 -10 -43 2 -3 25 9 50 27 88 61 197 48 197 -24 0
-54 -18 -101 -55 -144 -19 -23 -35 -46 -35 -51 0 -5 24 -9 53 -8 l52 1 3 -45
c2 -39 -3 -52 -37 -97 -39 -50 -41 -70 -7 -57 10 4 25 -1 36 -11 22 -20 23
-17 34 45 10 56 49 105 107 134 43 21 48 26 27 26 -14 0 -42 -11 -62 -25 -20
-14 -41 -25 -46 -25 -5 0 -16 16 -24 35 -8 19 -26 40 -40 47 -30 13 -32 25
-12 47 23 25 40 102 32 143 -5 25 -17 44 -37 59 -27 19 -39 21 -100 15 l-69
-6 0 57 c0 87 -52 153 -120 153 -27 0 -90 -32 -114 -59 -26 -29 -41 -27 -82
14 -24 24 -44 35 -64 35 -65 0 -140 -83 -163 -182 -15 -61 -42 -65 -82 -12
-36 47 -105 78 -152 69 l-35 -6 7 73 c12 130 -22 175 -144 185 -39 3 -71 11
-71 16 0 6 12 40 26 76 36 89 36 153 2 213 -35 58 -105 92 -169 82 l-42 -7 7
34 c18 84 18 100 -3 168 -36 119 -101 172 -216 173 -73 2 -129 -25 -188 -91
-20 -23 -42 -41 -47 -41 -6 0 -20 21 -31 48 -26 61 -54 90 -107 113 -47 20
-62 22 -103 9z"/>
<path d="M10859 5132 c-13 -11 -33 -22 -45 -26 -47 -14 -65 -130 -28 -181 18
-24 29 -13 15 13 -21 39 -13 108 15 141 65 78 196 31 234 -83 7 -21 18 -36 27
-36 13 0 14 8 9 41 -8 47 23 129 48 129 9 0 16 5 16 10 0 22 -30 8 -63 -30
-39 -46 -47 -48 -73 -19 -44 49 -119 69 -155 41z"/>
<path d="M7989 4905 c-4 -11 -7 -593 -8 -1294 -1 -701 -3 -1277 -6 -1279 -2
-3 -37 1 -77 8 -40 6 -113 18 -163 25 -49 7 -133 20 -185 29 -105 17 -160 20
-125 7 11 -4 53 -14 93 -21 56 -10 72 -17 70 -29 -2 -12 -25 -19 -86 -27 -46
-7 -87 -16 -90 -19 -8 -9 166 2 246 16 89 14 131 11 289 -20 211 -42 256 -47
272 -27 17 20 16 1 13 659 -1 295 -6 537 -11 537 -15 0 -21 -150 -27 -665 -3
-275 -8 -502 -10 -504 -4 -4 -154 15 -159 21 -1 1 -6 557 -9 1233 -6 1137 -11
1403 -27 1350z"/>
<path d="M11482 4471 c-53 -39 -65 -60 -15 -27 21 14 53 29 72 32 l34 7 -5
-60 c-3 -49 -12 -72 -47 -129 -42 -67 -43 -68 -11 -39 67 62 112 199 78 233
-20 20 -63 13 -106 -17z"/>
<path d="M11393 4372 c-3 -12 -9 -22 -14 -22 -5 0 -9 -4 -9 -10 0 -5 4 -10 8
-10 11 0 34 51 27 58 -3 4 -8 -4 -12 -16z"/>
<path d="M11250 4362 c0 -4 9 -13 19 -19 25 -15 41 -72 41 -140 0 -29 4 -53
10 -53 9 0 30 61 30 90 0 8 7 27 14 42 8 15 11 30 6 33 -4 3 -11 -6 -14 -20
-10 -37 -42 -33 -50 7 -3 17 -14 40 -23 50 -17 19 -33 24 -33 10z"/>
<path d="M11202 4255 c0 -16 2 -22 5 -12 2 9 2 23 0 30 -3 6 -5 -1 -5 -18z"/>
<path d="M10991 4227 c-21 -24 -22 -28 -10 -62 8 -20 20 -42 28 -48 12 -10 13
-9 2 11 -7 13 -11 40 -9 60 3 32 7 37 31 40 28 3 77 -25 109 -63 15 -18 45
-80 64 -130 6 -16 8 -17 11 -4 5 21 -30 102 -64 145 -35 44 -61 61 -104 69
-28 5 -38 2 -58 -18z"/>
<path d="M13975 4032 c-32 -7 -104 -52 -116 -73 -13 -25 -41 -24 -64 1 -29 32
-39 23 -16 -14 12 -18 21 -48 21 -66 0 -43 19 -35 48 21 30 55 66 85 125 101
39 10 48 9 71 -5 23 -16 26 -24 26 -78 0 -44 -6 -72 -22 -100 -12 -21 -19 -41
-16 -44 3 -4 23 3 44 14 42 23 94 27 125 11 14 -8 19 -21 19 -51 0 -52 -21
-96 -65 -139 -34 -33 -45 -60 -25 -60 6 0 28 9 50 20 57 29 134 27 165 -5 51
-50 24 -171 -53 -239 -27 -24 -28 -32 -2 -39 34 -9 26 -59 -15 -98 -41 -39
-33 -55 18 -34 20 8 62 15 92 15 49 0 60 -4 85 -28 43 -43 47 -88 16 -150 -14
-28 -35 -56 -46 -62 -29 -15 -25 -40 5 -40 14 0 28 -7 31 -15 4 -8 11 -15 17
-15 5 0 3 8 -6 18 -22 24 -22 46 0 63 28 24 55 98 49 134 -13 68 -89 124 -167
125 l-36 0 -7 56 c-6 53 -4 59 28 102 91 125 51 247 -85 260 -55 5 -54 0 -25
80 29 77 -7 131 -92 140 l-49 4 1 63 c1 57 -2 67 -27 93 -29 30 -63 41 -102
34z"/>
<path d="M11556 3943 c-96 -28 -188 -161 -172 -249 10 -52 26 -41 26 19 0 145
166 264 274 197 53 -32 70 -71 71 -165 0 -52 5 -80 12 -80 6 0 26 22 45 50 56
84 156 134 237 120 50 -9 71 -27 81 -70 15 -67 -2 -125 -61 -212 -33 -47 -25
-62 20 -38 17 8 54 15 84 15 73 0 97 -25 97 -101 0 -48 -4 -60 -34 -95 -19
-22 -51 -49 -72 -59 -22 -11 -42 -24 -46 -30 -9 -13 11 -25 43 -25 15 0 32 -7
39 -15 12 -15 10 -72 -4 -110 -7 -17 -5 -17 13 4 33 36 36 66 12 106 -27 47
-27 49 12 85 39 35 77 106 77 142 0 57 -82 131 -143 130 -35 -1 -44 20 -22 54
25 38 31 121 12 166 -17 41 -63 74 -114 84 -43 8 -123 -20 -179 -62 -24 -19
-50 -34 -57 -34 -7 0 -21 24 -30 54 -12 36 -29 65 -53 85 -19 17 -38 31 -42
31 -4 0 -23 4 -42 9 -24 5 -52 3 -84 -6z"/>
<path d="M12561 3831 c-24 -21 -40 -41 -35 -44 6 -3 16 -2 24 4 8 5 39 9 68 9
74 0 100 -28 104 -113 l3 -62 70 0 c88 0 131 -23 163 -85 33 -63 26 -148 -17
-224 -17 -30 -26 -58 -21 -61 16 -10 58 66 76 135 22 86 9 138 -50 196 -46 47
-96 65 -156 57 -40 -6 -40 -5 -40 27 0 87 -48 150 -115 150 -24 0 -27 3 -23
25 7 33 1 31 -51 -14z"/>
<path d="M8445 3348 c-3 -57 -5 -307 -3 -557 2 -365 6 -455 16 -459 7 -2 16 5
19 16 3 15 16 21 46 25 23 3 125 14 227 26 102 11 214 25 250 30 36 6 135 18
220 26 85 9 173 20 195 25 22 5 93 17 158 26 64 9 117 21 117 26 0 11 15 12
-315 -22 -360 -38 -649 -73 -782 -96 -57 -10 -105 -15 -109 -11 -9 9 -13 192
-14 640 0 235 -4 407 -9 407 -5 0 -12 -46 -16 -102z"/>
<path d="M10495 3411 c-54 -23 -162 -175 -153 -218 2 -11 13 7 25 42 30 82
113 165 164 165 12 0 12 -75 -1 -120 -5 -20 -25 -62 -44 -93 -40 -67 -33 -76
11 -14 71 99 96 180 69 222 -17 26 -36 30 -71 16z"/>
<path d="M12620 3324 c-31 -11 -100 -46 -105 -54 -3 -5 19 2 50 15 96 43 142
29 115 -34 -17 -42 -48 -67 -136 -111 -59 -29 -74 -40 -61 -46 9 -3 23 -1 31
5 7 6 42 14 77 18 35 4 56 9 47 11 -29 6 -20 33 22 70 22 18 47 47 55 63 14
26 14 30 -5 49 -19 19 -56 25 -90 14z"/>
<path d="M10084 3170 c-11 -4 -26 -22 -33 -38 -11 -25 -10 -36 4 -65 17 -36
75 -98 75 -80 0 5 -9 18 -19 27 -27 25 -43 68 -39 107 3 31 6 34 40 37 73 6
135 -44 178 -142 22 -52 44 -63 30 -16 -22 75 -93 151 -157 169 -44 13 -51 13
-79 1z"/>
<path d="M10676 3142 c-3 -5 -24 -15 -46 -22 -52 -17 -118 -75 -159 -138 -42
-66 -40 -79 3 -16 60 90 146 151 227 161 38 5 39 5 39 -25 0 -24 -10 -39 -47
-72 -27 -23 -64 -50 -83 -61 -43 -22 -33 -25 17 -4 49 21 120 80 139 117 14
27 14 31 -2 49 -17 19 -78 27 -88 11z"/>
<path d="M11360 3069 c-24 -11 -40 -22 -36 -26 3 -4 12 -1 18 5 7 7 22 12 35
12 41 0 29 -50 -39 -163 -35 -58 -44 -67 -62 -62 -121 39 -175 43 -266 21 -30
-7 -74 -23 -97 -35 -54 -27 -59 -27 -127 10 -51 28 -66 31 -133 30 -52 -1 -97
-9 -148 -26 -40 -14 -77 -24 -82 -23 -4 1 -21 -10 -37 -25 -35 -33 -48 -34
-86 -5 -41 30 -102 28 -167 -6 -29 -14 -53 -28 -53 -30 0 -2 25 5 57 15 97 32
153 24 153 -21 0 -16 3 -31 8 -34 4 -2 33 13 65 34 31 21 83 49 114 61 104 40
323 36 323 -6 0 -7 7 -18 15 -25 13 -10 26 -7 78 18 34 16 100 37 146 46 78
16 88 16 150 0 36 -9 74 -20 84 -26 15 -8 30 2 85 56 45 44 61 66 50 66 -22 0
-22 5 2 55 23 47 26 91 7 98 -8 3 -33 -3 -57 -14z"/>
<path d="M12710 3071 c0 -11 -8 -25 -17 -30 -20 -11 -4 -15 21 -5 18 7 22 39
6 49 -5 3 -10 -3 -10 -14z"/>
<path d="M11601 3021 c-30 -9 -56 -22 -59 -29 -5 -16 10 -15 34 3 10 8 40 15
67 15 68 0 63 -25 -17 -84 -124 -91 -110 -102 75 -57 78 19 157 31 202 32 66
1 69 2 37 11 -35 10 -194 5 -237 -8 -32 -9 -31 25 2 56 30 28 32 55 6 70 -25
13 -44 12 -110 -9z"/>
<path d="M11289 3013 c-13 -16 -12 -17 4 -4 16 13 21 21 13 21 -2 0 -10 -8
-17 -17z"/>
<path d="M13635 2971 c-38 -15 -87 -37 -108 -49 -47 -27 -58 -27 -127 -1 -90
34 -219 18 -332 -43 -34 -18 -66 -28 -78 -25 -23 6 -27 -14 -6 -32 12 -10 23
-7 56 14 96 61 126 69 257 69 114 1 123 0 146 -23 26 -24 36 -23 72 10 50 45
171 88 248 89 18 0 4 -51 -23 -85 -55 -69 -37 -83 65 -47 92 33 291 45 301 18
7 -18 34 -22 34 -6 0 6 -19 20 -42 30 -69 31 -145 27 -295 -16 -28 -8 -31 12
-9 55 13 25 13 31 0 50 -21 29 -72 27 -159 -8z"/>
<path d="M10140 2976 c0 -2 7 -7 16 -10 8 -3 12 -2 9 4 -6 10 -25 14 -25 6z"/>
<path d="M10540 2940 c0 -5 5 -10 10 -10 6 0 10 5 10 10 0 6 -4 10 -10 10 -5
0 -10 -4 -10 -10z"/>
<path d="M12334 2931 c-75 -23 -149 -55 -158 -70 -4 -6 -20 -11 -37 -11 -31 0
-39 -14 -13 -24 9 -4 37 5 63 20 82 46 235 90 272 79 27 -9 23 -32 -11 -72
-29 -33 -32 -53 -7 -53 26 0 177 53 177 62 0 6 -10 8 -22 5 -100 -24 -109 -21
-86 29 11 23 10 28 -7 40 -25 19 -97 16 -171 -5z"/>
<path d="M12725 2893 c-16 -2 -34 -9 -39 -14 -6 -5 37 -9 113 -9 75 0 120 4
116 10 -3 5 -18 9 -33 8 -15 0 -49 2 -77 5 -27 3 -63 3 -80 0z"/>
<path d="M10412 2870 c-6 -10 -8 -21 -3 -24 5 -3 11 4 14 16 8 29 4 32 -11 8z"/>
<path d="M9660 2765 c0 -8 -8 -16 -17 -16 -10 -1 10 -5 44 -9 35 -4 81 -15
103 -25 39 -17 41 -17 60 0 11 10 20 23 20 28 0 6 -9 2 -21 -9 -17 -15 -23
-16 -41 -5 -20 12 -125 50 -140 51 -5 0 -8 -7 -8 -15z"/>
<path d="M9580 2725 c-14 -16 -10 -18 14 -9 9 3 16 10 16 15 0 14 -16 11 -30
-6z"/>
<path d="M5940 2682 c0 -5 19 -12 43 -16 58 -9 328 -60 594 -112 240 -48 274
-52 232 -29 -26 14 -140 40 -359 80 -69 13 -132 26 -140 29 -13 5 -227 39
-332 53 -22 3 -38 1 -38 -5z"/>
<path d="M6620 2379 c-59 -8 -284 -29 -627 -61 -124 -11 -165 -20 -152 -32 15
-15 883 74 901 92 14 14 -20 14 -122 1z"/>
<path d="M6430 2164 c-107 -13 -260 -30 -340 -39 -167 -17 -196 -23 -184 -34
8 -7 309 19 394 34 19 3 103 15 185 25 83 10 168 23 190 28 l40 10 -45 0 c-25
0 -133 -11 -240 -24z"/>
</g>
</svg>
