<?xml version="1.0" standalone="no"?>
<!DOCTYPE svg PUBLIC "-//W3C//DTD SVG 20010904//EN"
 "http://www.w3.org/TR/2001/REC-SVG-20010904/DTD/svg10.dtd">
<svg version="1.0" xmlns="http://www.w3.org/2000/svg"
 width="1091.935697pt" height="1361.309315pt" viewBox="0 0 1091.935697 1361.309315"
 preserveAspectRatio="xMidYMid meet">
<metadata>
Created by potrace 1.16, written by Peter Selinger 2001-2019
</metadata>
<g transform="translate(-352.993964,1580.908269) scale(0.100000,-0.100000)"
fill="#000000" stroke="none">
<path d="M6940 15803 c-14 -2 -43 -10 -65 -18 -22 -7 -74 -21 -115 -30 -41 -9
-89 -26 -106 -36 -17 -10 -37 -19 -44 -19 -25 0 -217 -100 -306 -159 -51 -34
-108 -80 -129 -103 -21 -24 -50 -56 -64 -73 -67 -74 -159 -266 -167 -350 -3
-22 -9 -62 -15 -90 -8 -36 -8 -88 0 -182 6 -73 8 -139 5 -147 -3 -8 -18 -20
-32 -26 -15 -6 -45 -21 -67 -35 -22 -13 -65 -36 -95 -51 -30 -16 -75 -43 -100
-59 -25 -17 -52 -34 -60 -38 -18 -8 -89 -55 -232 -152 -145 -98 -311 -265
-362 -365 l-39 -76 18 -59 c21 -68 69 -120 119 -131 17 -4 40 -13 51 -20 26
-18 256 -20 288 -2 12 7 57 15 99 18 52 4 84 12 96 23 10 9 34 17 54 17 19 0
72 11 118 25 93 28 113 23 90 -20 -22 -41 -70 -86 -149 -139 -88 -60 -135
-116 -161 -190 -40 -113 -21 -188 73 -285 54 -56 73 -65 107 -53 14 5 38 4 64
-5 23 -7 53 -15 69 -18 15 -3 27 -10 27 -15 0 -5 -44 -54 -97 -108 -97 -97
-119 -124 -211 -254 -118 -168 -270 -401 -337 -518 -26 -47 -67 -114 -90 -150
-23 -36 -54 -90 -69 -120 -15 -30 -38 -73 -51 -95 -13 -22 -37 -66 -54 -97
-17 -32 -42 -75 -55 -97 l-25 -39 22 -33 c28 -41 83 -78 162 -108 33 -12 74
-29 90 -36 17 -8 46 -18 65 -23 31 -7 35 -12 38 -46 2 -21 -4 -59 -12 -84 -18
-52 -70 -254 -90 -347 -20 -93 -40 -153 -80 -240 -21 -44 -44 -96 -53 -115 -9
-19 -19 -42 -23 -51 -5 -8 -20 -47 -35 -85 -30 -77 -51 -124 -137 -304 -33
-69 -69 -145 -80 -170 -21 -45 -62 -132 -77 -160 -5 -8 -15 -31 -24 -50 -31
-70 -68 -145 -77 -160 -6 -8 -14 -26 -20 -40 -5 -14 -14 -32 -19 -40 -4 -8
-15 -31 -23 -50 -48 -107 -120 -241 -188 -345 -101 -155 -189 -321 -190 -360
-1 -5 -9 -28 -20 -50 -11 -22 -20 -60 -20 -85 0 -25 -7 -56 -15 -70 -21 -36
-21 -405 -1 -452 8 -18 17 -44 20 -58 15 -68 150 -151 197 -122 10 7 44 12 75
12 53 0 59 3 98 42 76 77 89 108 92 233 2 61 3 113 3 118 1 14 32 7 71 -15
l40 -23 44 24 c69 36 112 110 122 210 5 45 17 82 38 120 17 31 40 76 49 101
10 25 26 59 34 75 11 21 17 70 21 165 l5 135 34 45 c19 25 61 86 94 135 33 50
85 124 114 165 90 124 117 163 152 215 18 28 37 57 43 65 6 8 26 38 45 65 18
28 52 82 74 120 22 39 44 76 48 84 7 11 19 8 63 -17 34 -19 78 -33 113 -37 38
-5 61 -13 64 -23 4 -8 1 -47 -6 -86 -7 -39 -18 -121 -25 -182 -7 -60 -18 -120
-25 -132 -20 -37 -17 -815 3 -987 9 -77 21 -180 25 -230 5 -49 14 -103 20
-118 6 -16 11 -39 11 -53 0 -13 10 -58 22 -99 26 -89 22 -115 -41 -275 -23
-58 -48 -123 -56 -145 -7 -22 -23 -65 -34 -95 -12 -30 -33 -89 -47 -130 -14
-41 -41 -115 -61 -165 -19 -49 -44 -115 -55 -145 -11 -30 -27 -70 -34 -88 -8
-18 -14 -38 -14 -45 0 -11 -32 -95 -101 -267 -17 -41 -37 -95 -44 -120 -7 -25
-23 -70 -35 -100 -12 -30 -26 -73 -31 -95 -6 -21 -14 -44 -18 -50 -4 -5 -13
-23 -19 -40 -6 -16 -23 -61 -37 -100 -14 -38 -30 -83 -35 -100 -5 -16 -20 -61
-35 -100 -14 -38 -39 -108 -55 -155 -53 -155 -61 -175 -75 -207 -8 -17 -15
-36 -15 -43 0 -7 -6 -24 -14 -38 -8 -15 -24 -54 -36 -87 -12 -33 -29 -75 -36
-93 -8 -18 -14 -38 -14 -45 -1 -7 -9 -30 -20 -52 -11 -22 -19 -46 -20 -53 0
-8 -6 -26 -14 -40 -13 -25 -28 -62 -72 -172 -10 -25 -26 -64 -36 -87 -10 -23
-18 -46 -18 -51 0 -11 -23 -66 -94 -224 -9 -20 -16 -41 -16 -46 0 -6 -6 -23
-14 -39 -8 -15 -24 -53 -36 -83 -12 -30 -28 -68 -36 -85 -7 -16 -16 -43 -20
-60 -4 -16 -10 -34 -13 -40 -11 -17 -49 -118 -60 -160 -6 -22 -22 -60 -36 -84
-19 -33 -25 -57 -25 -105 0 -58 3 -66 34 -98 19 -19 51 -44 72 -54 22 -11 71
-37 109 -58 39 -22 104 -57 145 -79 108 -56 109 -58 83 -110 -11 -23 -26 -53
-33 -67 -23 -51 -52 -62 -180 -67 -97 -5 -128 -3 -172 12 -29 10 -85 19 -124
20 -39 2 -81 8 -93 14 -12 7 -51 14 -89 18 -37 3 -78 12 -92 19 -38 21 -165
46 -255 51 -75 5 -86 3 -148 -27 -67 -32 -117 -83 -117 -121 0 -9 -7 -22 -15
-29 -16 -13 -21 -70 -7 -70 5 0 16 -17 26 -37 48 -111 105 -165 304 -295 32
-20 77 -47 102 -61 25 -13 89 -49 143 -80 54 -32 100 -57 102 -57 3 0 96 -44
207 -99 112 -54 248 -120 303 -146 55 -25 123 -58 150 -72 28 -14 68 -31 90
-38 22 -7 72 -25 110 -40 58 -23 87 -28 170 -29 81 -1 106 2 130 17 30 19 90
90 115 137 23 43 38 145 29 195 -7 36 -4 59 10 103 10 31 28 91 41 132 12 41
28 89 36 107 8 17 14 40 14 52 0 11 15 53 33 93 19 40 38 86 43 102 15 48 32
52 136 33 51 -9 145 -18 208 -19 110 -2 117 -1 161 25 45 26 48 32 74 115 14
48 33 99 41 114 8 14 14 36 14 49 0 24 32 132 56 187 8 18 14 45 14 60 0 15 7
40 15 55 8 15 19 49 24 75 16 75 32 133 52 184 11 26 19 66 19 90 0 24 7 53
15 64 8 10 15 31 15 46 0 15 9 50 20 78 11 28 20 65 20 83 1 18 7 43 15 57 8
14 15 41 15 60 1 19 8 53 16 75 9 22 20 63 24 90 4 28 20 82 35 120 15 39 30
93 34 120 4 28 12 59 18 70 17 30 53 148 53 174 0 12 6 34 14 49 7 15 17 52
21 82 4 30 13 65 21 77 8 12 14 31 14 41 0 24 37 150 54 182 7 14 16 45 20 70
13 85 50 158 60 118 11 -47 54 -165 83 -225 18 -40 33 -75 33 -78 0 -8 51
-115 156 -331 46 -94 84 -174 84 -178 0 -15 196 -400 278 -546 17 -30 45 -82
62 -115 17 -33 42 -78 55 -100 13 -22 31 -53 39 -70 8 -16 31 -57 51 -90 19
-33 40 -71 47 -85 7 -14 24 -41 38 -60 14 -19 32 -46 38 -60 34 -66 47 -83 84
-111 33 -23 51 -29 94 -29 54 0 220 42 238 60 6 6 19 10 30 10 11 0 48 14 83
31 71 34 93 33 93 -7 0 -47 -60 -204 -78 -204 -4 0 -13 -12 -20 -28 -7 -15
-18 -36 -25 -47 -7 -11 -22 -35 -33 -53 -36 -57 -154 -182 -213 -225 -93 -69
-202 -168 -227 -209 -48 -76 -25 -182 50 -222 69 -36 134 -45 264 -35 68 5
133 14 144 20 12 6 51 15 88 20 37 4 85 15 106 24 58 25 183 87 202 102 104
78 160 130 357 333 250 255 252 258 343 375 35 44 66 85 70 90 5 6 21 37 36
69 25 53 28 68 24 133 -3 49 -11 79 -22 91 -9 10 -16 23 -16 28 -1 14 -78 97
-146 156 -76 66 -214 221 -214 241 0 8 7 21 16 28 18 14 58 81 108 176 20 39
21 112 2 150 -8 15 -18 35 -21 43 -16 41 -136 220 -161 241 -8 6 -14 16 -14
22 0 5 -24 40 -53 76 -57 70 -122 163 -147 209 -9 16 -21 35 -28 43 -18 20
-82 120 -93 144 -5 11 -27 47 -49 80 -22 33 -45 71 -52 85 -7 14 -24 41 -38
60 -14 19 -31 46 -38 60 -22 45 -74 135 -82 140 -4 3 -13 17 -21 32 -8 14 -39
68 -69 118 -30 51 -68 116 -84 144 -16 28 -40 69 -53 91 -13 22 -30 54 -38 72
-8 17 -19 34 -24 37 -5 4 -12 20 -16 36 -4 17 -11 30 -16 30 -5 0 -12 12 -15
28 -4 15 -15 38 -26 51 -10 13 -18 32 -18 41 0 10 -7 23 -15 30 -8 7 -15 23
-15 35 0 12 -7 28 -15 35 -8 7 -15 19 -15 27 0 8 -9 31 -19 51 -18 35 -64 132
-110 233 -12 25 -21 51 -21 57 0 11 -24 64 -56 124 -8 14 -14 35 -14 45 0 10
-6 27 -14 38 -7 11 -16 40 -20 64 -4 24 -13 53 -21 64 -8 12 -15 35 -15 52 0
17 -6 39 -14 50 -7 11 -17 39 -21 63 -4 24 -13 56 -21 70 -8 15 -14 36 -14 46
0 11 -8 28 -17 38 -16 17 -16 22 -2 51 40 82 59 129 59 146 0 10 7 24 15 31 8
7 15 20 15 29 0 9 9 33 20 54 11 20 20 49 20 63 0 33 37 94 56 94 8 0 31 -9
51 -20 32 -17 57 -20 156 -20 76 0 126 4 140 12 12 7 58 18 102 24 44 6 94 16
110 22 86 30 104 35 150 47 69 19 137 44 153 58 8 6 45 27 84 47 39 21 90 56
114 80 46 45 47 44 44 -26 -1 -32 6 -50 33 -86 31 -41 35 -53 38 -121 l4 -75
60 -65 c33 -35 69 -79 80 -97 11 -18 38 -43 60 -55 22 -12 42 -30 44 -41 2
-10 22 -41 44 -67 l40 -49 111 4 c61 2 118 7 127 11 11 6 26 -8 57 -58 42 -64
159 -203 236 -280 72 -71 187 -170 206 -177 10 -4 21 -11 25 -17 3 -6 14 -11
23 -11 10 0 35 -9 56 -21 29 -15 57 -20 116 -21 69 0 86 4 145 33 67 32 186
139 284 254 31 36 44 46 51 36 8 -14 0 -54 -19 -89 -6 -11 -11 -52 -11 -91 0
-47 -7 -87 -20 -121 -13 -32 -20 -75 -20 -118 -1 -43 -6 -74 -15 -86 -10 -13
-15 -43 -15 -82 0 -35 -5 -75 -10 -90 -9 -23 -29 -139 -47 -265 -6 -45 28
-119 56 -119 23 0 71 -37 71 -55 0 -7 -7 -18 -15 -25 -8 -7 -17 -28 -21 -49
-4 -20 -13 -48 -20 -63 -8 -15 -14 -39 -14 -53 0 -14 -6 -38 -14 -53 -8 -15
-17 -46 -21 -67 -4 -22 -13 -50 -21 -62 -8 -12 -14 -33 -14 -45 -1 -13 -9 -41
-20 -63 -11 -22 -20 -51 -20 -65 0 -14 -7 -34 -15 -44 -8 -11 -15 -30 -15 -43
0 -12 -9 -45 -20 -73 -11 -28 -20 -63 -20 -78 0 -16 -7 -37 -15 -48 -8 -10
-15 -28 -15 -39 0 -11 -9 -37 -20 -58 -11 -20 -20 -47 -20 -60 0 -12 -6 -31
-14 -42 -7 -11 -17 -35 -21 -53 -4 -18 -13 -45 -21 -60 -8 -15 -14 -51 -14
-80 0 -50 2 -54 37 -75 21 -12 60 -27 88 -32 44 -9 50 -14 53 -37 2 -15 -6
-47 -17 -72 -12 -25 -21 -60 -21 -78 0 -19 -6 -42 -14 -53 -7 -11 -17 -40 -21
-65 -4 -25 -14 -57 -21 -72 -8 -15 -14 -42 -14 -60 0 -19 -6 -42 -14 -53 -7
-11 -17 -47 -21 -79 -4 -33 -13 -73 -20 -90 -15 -36 -31 -97 -50 -184 -7 -35
-18 -69 -24 -75 -6 -6 -11 -31 -11 -54 0 -24 -9 -61 -20 -83 -11 -22 -20 -52
-20 -68 0 -16 -7 -46 -15 -65 -8 -20 -15 -49 -15 -64 0 -16 -7 -38 -15 -51 -9
-12 -19 -45 -22 -74 -3 -29 -11 -60 -18 -68 -7 -8 -15 -38 -18 -67 -3 -29 -13
-65 -21 -82 -9 -16 -16 -45 -16 -64 0 -19 -7 -51 -15 -70 -8 -20 -15 -47 -15
-59 0 -13 -7 -36 -16 -53 -8 -16 -18 -51 -21 -76 -7 -58 -70 -139 -109 -139
-13 0 -57 -15 -96 -34 -100 -46 -132 -56 -213 -70 -38 -6 -75 -15 -81 -19 -6
-3 -53 -9 -104 -12 -63 -4 -103 -12 -128 -26 -20 -10 -41 -19 -46 -19 -5 0
-28 -16 -52 -35 -30 -25 -49 -51 -63 -89 -18 -49 -19 -57 -5 -101 7 -27 25
-63 39 -81 29 -38 136 -114 160 -114 8 0 57 -15 108 -34 50 -18 115 -38 142
-44 28 -6 68 -15 90 -21 59 -15 169 -32 267 -41 49 -5 92 -11 97 -14 4 -3 50
-10 102 -16 51 -6 113 -17 137 -25 28 -10 84 -15 163 -15 111 0 124 2 165 26
51 30 104 93 104 123 0 12 7 36 16 53 12 24 17 69 19 202 2 136 6 178 19 203
9 18 16 47 16 65 0 19 7 43 15 54 8 12 19 39 24 60 9 37 16 62 42 137 6 17 17
57 25 87 7 30 27 95 43 143 17 48 31 94 31 101 0 8 7 19 15 26 8 7 15 21 15
31 0 10 14 58 31 106 16 48 34 104 39 124 5 19 16 49 25 65 8 16 15 36 15 46
0 9 9 40 19 70 39 108 91 306 91 343 0 17 6 39 13 50 7 11 23 54 36 95 12 41
28 89 36 105 8 17 25 66 40 109 14 44 29 84 34 90 5 6 12 27 16 46 13 64 32
90 66 90 16 0 46 -7 66 -15 53 -22 118 -19 153 7 17 12 30 27 30 32 1 6 9 29
20 51 11 22 19 48 20 57 0 9 4 19 9 23 5 3 13 20 16 38 8 36 46 107 57 107 4
0 10 -12 14 -27 12 -57 73 -213 97 -247 l20 -29 134 6 134 5 10 -26 c5 -15 13
-36 18 -47 5 -11 26 -59 46 -107 21 -48 44 -96 52 -105 7 -10 47 -63 89 -118
80 -106 120 -157 151 -190 10 -11 32 -39 48 -61 42 -57 252 -310 296 -355 20
-20 56 -61 79 -90 23 -30 63 -76 89 -104 54 -57 142 -169 160 -202 17 -33 3
-208 -20 -255 -11 -21 -19 -49 -19 -64 0 -14 -7 -38 -14 -52 -22 -39 -56 -123
-56 -136 0 -6 -27 -49 -60 -96 -105 -148 -113 -164 -132 -233 -16 -63 -16 -72
-2 -105 20 -50 50 -79 108 -109 65 -33 141 -40 205 -19 27 9 65 16 84 16 36 0
150 37 207 67 86 45 195 140 268 232 42 53 81 101 87 106 17 15 85 114 85 123
0 4 15 30 33 57 17 28 46 76 62 107 51 97 62 117 73 131 20 24 82 156 82 174
0 10 7 29 16 42 10 14 19 51 21 90 5 64 4 68 -36 128 -69 103 -234 242 -287
243 -33 0 -173 173 -279 346 -11 18 -38 54 -60 79 -21 26 -51 66 -67 89 -15
22 -44 64 -63 91 -20 28 -41 58 -48 69 -7 10 -62 84 -122 165 -137 180 -161
217 -204 308 -41 85 -39 88 54 134 35 17 73 41 85 54 23 25 24 36 2 148 -11
57 2 77 47 77 21 0 48 18 101 65 40 36 80 65 89 65 24 0 64 47 91 105 12 28
29 64 37 81 11 23 13 58 10 145 -8 183 -28 299 -77 434 -37 105 -51 165 -48
211 3 48 4 49 43 57 22 5 55 15 73 23 18 8 40 14 50 14 23 0 116 40 177 76 96
56 185 167 185 230 0 19 7 51 15 71 18 42 20 251 4 323 -6 25 -14 101 -19 170
-4 69 -13 138 -19 154 -7 16 -15 66 -18 110 -3 45 -10 90 -16 101 -6 11 -14
58 -18 105 -3 47 -14 107 -23 133 -9 26 -16 64 -16 83 0 19 -6 47 -14 62 -7
15 -17 53 -20 85 -4 32 -14 70 -22 85 -7 15 -14 37 -14 48 0 12 -6 27 -14 33
-8 7 -17 22 -20 35 -17 69 -176 258 -251 299 -66 36 -215 107 -223 107 -5 0
-22 6 -38 14 -16 8 -54 17 -84 20 -30 4 -73 11 -95 16 -22 5 -57 12 -77 15
-42 7 -48 23 -19 49 18 17 22 17 43 2 12 -9 42 -16 66 -16 38 0 49 5 78 37 19
20 34 41 34 47 0 5 8 18 18 29 14 16 17 38 16 126 l0 106 -47 88 c-26 48 -45
92 -42 97 9 14 36 0 75 -37 19 -18 43 -33 52 -33 10 0 44 -13 76 -29 88 -44
97 -45 148 -20 37 17 50 31 66 68 18 44 19 48 3 101 -29 98 -103 227 -235 411
-22 31 -40 66 -40 76 0 11 11 37 25 57 14 20 25 45 25 54 0 9 7 30 15 46 8 15
15 36 15 46 0 9 9 29 20 43 16 20 20 40 20 94 0 46 5 76 16 91 12 18 14 40 11
100 -10 161 -35 269 -78 342 -5 8 -13 25 -19 37 -17 40 -95 147 -136 188 -111
110 -156 145 -184 145 -16 0 -31 4 -34 9 -23 36 -240 131 -302 131 -17 0 -39
7 -50 15 -27 21 -308 21 -344 0 -14 -8 -38 -14 -55 -15 -16 0 -43 -7 -59 -15
-16 -8 -47 -18 -70 -21 -22 -3 -54 -12 -71 -19 -16 -7 -41 -18 -55 -24 -14 -6
-32 -15 -40 -20 -8 -5 -37 -20 -65 -32 -27 -13 -63 -36 -80 -51 -43 -40 -59
-42 -107 -13 -24 14 -50 30 -58 35 -8 5 -42 21 -75 35 -33 14 -72 32 -87 40
-14 8 -35 15 -46 15 -11 0 -25 7 -32 15 -7 8 -21 15 -31 15 -11 0 -36 9 -56
20 -21 11 -46 20 -56 20 -10 0 -28 6 -40 14 -12 8 -68 19 -124 26 -116 14
-161 5 -199 -39 -30 -33 -33 -115 -6 -164 38 -70 133 -200 177 -242 84 -81
197 -173 232 -190 49 -23 53 -41 20 -82 -37 -45 -97 -149 -97 -168 0 -24 -36
-81 -63 -100 -12 -8 -37 -15 -57 -15 -43 0 -148 -35 -174 -58 -10 -10 -27 -34
-38 -55 -18 -36 -18 -41 -4 -62 9 -14 16 -30 16 -36 0 -7 21 -43 46 -81 l47
-69 -27 -62 c-14 -34 -26 -80 -26 -102 0 -23 -7 -67 -15 -99 -14 -51 -14 -63
0 -102 8 -25 15 -61 15 -82 1 -52 63 -159 135 -233 60 -61 162 -129 193 -129
23 0 62 -28 62 -44 0 -9 -20 -16 -55 -20 -92 -11 -208 -72 -296 -157 -42 -41
-79 -84 -83 -96 -4 -12 -31 -37 -60 -57 -56 -37 -163 -149 -268 -281 -34 -43
-74 -91 -87 -105 -13 -14 -44 -52 -69 -85 -25 -33 -75 -90 -110 -127 -36 -37
-76 -86 -90 -110 -14 -24 -31 -50 -38 -59 -17 -20 -18 -73 -1 -91 58 -64 59
-66 48 -87 -7 -12 -18 -21 -26 -21 -22 0 -272 218 -279 243 -3 12 -6 42 -6 67
0 25 -7 54 -15 64 -8 11 -15 31 -15 45 -1 14 -9 44 -20 66 -11 22 -19 49 -20
61 0 11 -7 29 -15 40 -8 10 -15 27 -15 37 0 16 -10 39 -51 117 -47 90 -59 123
-59 172 -1 29 -7 64 -15 78 -8 14 -14 43 -15 65 0 22 -7 50 -15 63 -9 12 -20
55 -24 95 -5 40 -13 82 -18 93 -6 10 -13 43 -17 73 -4 30 -14 63 -22 75 -8 11
-14 41 -14 66 0 25 -9 65 -20 89 -11 24 -20 55 -20 70 -1 14 -7 37 -15 51 -8
14 -14 41 -15 60 0 19 -6 47 -14 62 -8 15 -17 42 -21 60 -4 18 -14 42 -21 53
-8 11 -14 35 -14 55 0 35 -31 141 -56 193 -8 16 -14 38 -14 49 0 19 -19 67
-56 141 -8 16 -14 34 -14 40 0 7 -9 29 -20 50 -11 20 -20 43 -20 51 0 7 -6 19
-14 25 -8 7 -17 24 -20 39 -4 15 -14 43 -23 62 -8 19 -21 49 -28 65 -7 17 -23
51 -34 76 -12 25 -21 51 -21 57 0 6 -16 44 -36 84 -20 40 -45 93 -56 118 -12
25 -25 52 -30 60 -29 51 -25 58 68 122 168 117 183 143 137 234 -15 30 -31 54
-35 54 -4 0 -8 6 -8 13 -1 17 -106 178 -182 277 -21 27 -38 54 -38 61 0 6 -16
30 -35 53 -19 24 -35 46 -35 50 0 7 -39 66 -50 76 -6 5 -118 170 -169 248 -13
21 -40 57 -60 82 -20 25 -50 65 -66 89 -40 59 -283 303 -337 338 -24 16 -62
43 -86 61 -24 17 -48 32 -54 32 -5 0 -21 9 -35 20 -14 11 -33 20 -42 20 -10 0
-23 6 -29 13 -7 6 -32 17 -55 22 -35 9 -42 15 -42 35 0 27 24 37 98 39 54 2
104 30 168 97 74 79 83 97 83 179 1 65 -12 114 -44 165 -5 8 -16 29 -23 45 -8
17 -43 61 -78 99 -101 109 -93 79 -97 359 -2 191 -6 257 -17 284 -8 20 -15 41
-15 48 0 15 149 90 197 100 17 3 37 13 44 21 6 8 22 14 35 14 12 0 25 4 28 9
3 4 32 21 63 36 32 15 70 34 85 41 14 8 33 14 41 14 8 0 20 7 27 15 6 8 40 28
73 46 79 39 172 96 268 163 80 55 157 129 178 172 13 27 30 60 37 74 11 22 9
32 -12 77 -26 57 -72 88 -149 100 -22 3 -52 12 -67 19 -20 11 -78 14 -229 14
-186 0 -312 -11 -509 -45 -19 -3 -86 -12 -148 -20 -62 -8 -121 -19 -132 -25
-37 -20 -75 -12 -88 18 -6 15 -21 41 -31 57 -11 17 -26 39 -33 51 -73 117
-151 205 -229 258 -78 53 -166 94 -219 101 -30 4 -72 14 -94 21 -37 13 -242
18 -306 7z m244 -158 c60 -9 123 -24 144 -35 20 -10 49 -22 63 -24 51 -11 279
-234 279 -274 0 -5 7 -15 15 -22 31 -26 18 -48 -39 -64 -30 -9 -60 -16 -68
-16 -15 0 -195 -45 -220 -55 -9 -4 -43 -12 -75 -20 -32 -7 -89 -24 -128 -38
-80 -28 -136 -47 -250 -83 -44 -14 -91 -31 -105 -38 -14 -8 -60 -26 -104 -41
-85 -29 -90 -31 -153 -63 -23 -12 -47 -22 -53 -22 -14 0 -60 -19 -155 -64 -38
-19 -85 -39 -104 -45 -19 -6 -48 -22 -66 -35 -31 -24 -47 -30 -72 -27 -18 1
-17 185 1 281 19 98 27 120 80 228 29 58 168 201 236 240 30 18 62 37 70 41
44 26 192 91 207 91 10 0 27 7 37 15 11 8 31 15 45 15 14 0 40 7 56 16 17 9
64 19 105 23 41 4 84 12 95 19 26 15 32 15 159 -3z m1744 -437 c54 -6 82 -14
82 -23 0 -38 -200 -196 -355 -279 -27 -15 -75 -43 -105 -61 -30 -19 -64 -34
-74 -35 -10 0 -41 -14 -69 -31 -27 -17 -59 -35 -71 -40 -12 -5 -28 -13 -36
-18 -8 -5 -22 -12 -30 -15 -8 -3 -39 -20 -69 -37 -29 -16 -56 -27 -59 -24 -4
3 -5 21 -4 39 6 59 -12 66 -149 62 -93 -3 -124 -7 -138 -20 -10 -9 -34 -16
-53 -16 -20 0 -58 -7 -84 -14 -161 -49 -189 -56 -203 -56 -9 0 -26 -7 -37 -15
-12 -8 -39 -19 -60 -24 -93 -24 -144 -40 -166 -54 -12 -7 -50 -22 -83 -31 -33
-10 -77 -27 -97 -37 -20 -10 -42 -19 -48 -19 -14 0 -70 -23 -122 -51 -20 -10
-44 -19 -53 -19 -10 0 -29 -7 -43 -15 -15 -8 -56 -26 -92 -41 -66 -26 -262
-118 -290 -135 -8 -5 -26 -14 -40 -19 -29 -12 -88 -39 -110 -51 -8 -4 -40 -20
-70 -35 -116 -56 -136 -68 -179 -103 -27 -21 -52 -53 -64 -81 -19 -45 -22 -48
-91 -69 -39 -13 -84 -27 -101 -33 -16 -6 -55 -14 -85 -19 -30 -6 -59 -14 -65
-18 -16 -13 -69 -20 -246 -31 -182 -12 -230 -4 -242 39 -12 48 95 169 252 281
50 36 112 82 139 102 27 21 60 42 73 48 13 6 51 28 84 50 33 22 74 46 90 55
17 8 57 31 90 50 33 19 89 49 125 66 36 17 83 40 105 52 57 31 222 109 255
121 8 3 22 10 30 14 8 5 31 16 50 25 19 8 61 27 92 41 31 14 63 26 71 26 8 0
20 7 27 15 7 8 22 15 34 15 12 0 27 5 33 11 11 11 89 42 148 58 17 5 47 16 67
25 21 9 48 16 61 16 13 0 32 7 43 15 10 8 29 15 42 15 12 0 40 9 62 20 22 11
52 20 67 20 16 0 37 6 48 14 11 7 40 16 64 20 24 4 56 13 72 21 15 8 41 15 56
15 15 1 39 7 53 15 14 8 34 14 45 15 18 0 118 27 190 52 17 5 62 16 100 23 39
6 83 17 98 24 16 6 53 11 83 11 30 0 67 6 82 14 15 7 66 16 113 20 48 3 103
13 122 21 22 9 71 15 124 16 48 1 99 4 113 8 38 12 304 11 398 -1z m-980 -620
c7 -7 12 -24 12 -39 0 -15 5 -40 11 -56 7 -15 15 -66 20 -113 4 -47 13 -128
19 -180 12 -98 11 -120 -14 -255 -24 -134 -56 -214 -128 -317 -51 -72 -57 -78
-108 -119 -75 -60 -148 -79 -303 -79 -109 0 -138 3 -167 18 -56 30 -89 35
-116 17 -41 -27 -25 -79 36 -117 14 -9 55 -23 90 -32 35 -9 69 -21 77 -27 9
-8 13 -36 13 -86 0 -109 30 -153 88 -132 12 5 22 15 22 24 0 9 7 18 15 21 15
6 85 -13 85 -23 0 -3 -17 -25 -37 -48 -21 -23 -60 -67 -86 -98 -50 -59 -163
-141 -212 -153 -16 -4 -40 -13 -54 -20 -45 -24 -212 -18 -284 9 -72 27 -141
90 -180 165 -40 78 -39 80 34 96 46 10 78 66 91 158 12 87 13 134 3 421 -6
150 -4 185 9 218 9 22 16 55 16 75 0 19 7 51 15 71 8 19 15 43 15 52 0 9 7 30
16 46 9 17 20 46 24 65 24 105 49 153 90 165 19 6 45 16 57 23 12 6 35 12 50
12 16 0 34 5 40 11 11 11 84 40 148 59 17 5 48 15 70 24 22 8 49 15 60 16 11
0 29 7 39 15 11 8 29 15 40 15 12 0 34 7 50 15 16 9 46 20 65 24 20 5 50 14
66 20 151 52 184 58 203 39z m-1194 -750 c-5 -24 -14 -43 -19 -43 -16 0 -19
87 -3 96 23 14 32 -8 22 -53z m1429 -164 c11 -14 16 -28 13 -31 -7 -7 -34 15
-47 39 -15 28 13 22 34 -8z m57 -97 c-1 -21 -1 -21 -15 -3 -8 10 -12 23 -9 28
9 14 24 -2 24 -25z m30 -46 c19 -36 9 -136 -13 -128 -14 4 -22 147 -8 147 6 0
15 -9 21 -19z m-2550 -220 c0 -10 -9 -40 -21 -65 -11 -26 -18 -54 -15 -61 3
-8 1 -17 -3 -19 -5 -3 -11 12 -15 34 -5 30 -1 50 16 85 23 47 38 58 38 26z
m1978 -265 c2 -10 0 -28 -6 -40 -5 -11 -18 -43 -27 -70 -10 -27 -32 -65 -50
-85 -37 -43 -69 -97 -78 -133 -5 -18 -16 -28 -36 -33 -15 -3 -41 -18 -57 -33
-41 -39 -74 -58 -113 -67 -19 -4 -57 -21 -84 -37 -28 -16 -75 -34 -104 -38
-29 -5 -63 -16 -75 -24 -30 -21 -51 -20 -73 4 -10 11 -23 20 -30 20 -44 0
-245 134 -245 163 0 37 -71 62 -98 35 -31 -31 7 -138 73 -199 60 -57 147 -109
181 -109 26 0 38 -9 69 -49 34 -45 58 -60 92 -61 6 0 26 15 45 33 66 64 89 77
134 77 47 0 106 26 166 72 21 16 53 32 73 35 39 6 88 54 111 110 8 19 22 33
32 33 35 1 112 96 112 138 0 10 16 41 35 70 55 85 76 138 64 169 -5 14 -8 28
-5 30 6 6 107 -28 131 -44 11 -7 26 -13 34 -13 8 0 34 -9 58 -20 24 -11 64
-30 91 -42 26 -12 63 -34 83 -50 20 -15 41 -28 46 -28 30 0 269 -240 351 -353
31 -43 80 -111 109 -150 29 -40 68 -94 87 -122 19 -27 58 -81 86 -120 27 -38
56 -81 62 -95 7 -14 27 -43 45 -66 18 -23 33 -44 33 -48 0 -3 15 -28 33 -54
17 -26 37 -55 42 -63 6 -9 25 -38 42 -65 18 -27 39 -58 48 -69 8 -10 15 -24
15 -31 0 -6 7 -17 15 -24 8 -7 15 -21 15 -30 0 -28 -204 -181 -305 -228 -11
-6 -54 -30 -95 -54 -41 -24 -102 -57 -135 -73 -33 -16 -62 -32 -65 -35 -3 -3
-16 -11 -30 -18 -14 -6 -32 -16 -40 -20 -8 -5 -31 -16 -50 -25 -19 -8 -55 -24
-80 -36 -97 -44 -97 -44 -118 -7 -11 19 -23 44 -27 57 -4 13 -16 44 -27 69
-11 25 -26 59 -33 75 -7 17 -22 51 -34 76 -12 25 -21 53 -21 61 0 9 -7 21 -15
28 -8 7 -15 19 -15 26 0 8 -9 31 -20 51 -11 21 -20 43 -20 50 0 6 -6 24 -14
40 -8 15 -38 78 -67 138 -70 145 -111 182 -153 139 -22 -21 -20 -67 4 -114 11
-22 20 -47 20 -57 0 -10 7 -27 15 -37 8 -11 15 -28 15 -38 0 -10 9 -35 20 -55
11 -21 20 -43 20 -50 0 -11 6 -25 51 -113 15 -31 17 -66 18 -243 1 -117 5
-215 11 -225 5 -9 14 -102 19 -207 5 -104 14 -201 20 -215 6 -14 18 -70 26
-125 11 -84 30 -191 62 -359 7 -36 -16 -56 -64 -56 -19 0 -46 -6 -61 -14 -15
-7 -52 -16 -82 -20 -30 -4 -73 -13 -95 -20 -97 -33 -98 -32 -143 28 -23 30
-42 62 -42 70 0 8 -5 18 -11 22 -6 3 -18 21 -26 38 -26 55 -46 90 -75 130 -15
21 -28 45 -28 51 0 7 -7 19 -16 26 -9 7 -20 22 -25 34 -5 11 -20 38 -34 60
-13 22 -27 47 -30 55 -4 8 -11 22 -16 30 -5 8 -15 29 -23 46 -8 17 -19 35 -25
38 -6 4 -11 15 -11 25 0 10 -9 28 -20 41 -11 13 -20 31 -20 40 0 10 -7 23 -15
30 -8 7 -15 20 -15 30 0 9 -9 27 -20 40 -11 13 -20 31 -20 40 0 10 -7 23 -15
30 -8 7 -15 19 -15 27 0 8 -9 31 -20 51 -10 20 -21 44 -24 52 -3 8 -10 22 -15
30 -15 24 -81 168 -81 176 0 7 -37 90 -51 114 -5 8 -14 26 -19 40 -18 44 -37
83 -74 157 -20 40 -36 80 -36 88 0 8 -9 32 -20 52 -11 21 -20 45 -20 53 0 8
-7 24 -15 34 -8 11 -15 27 -15 35 -1 9 -9 34 -20 56 -11 22 -20 49 -20 60 0
11 -7 29 -15 39 -8 11 -15 27 -15 35 0 8 -8 33 -19 55 -10 23 -21 50 -24 61
-3 11 -18 52 -32 90 -15 39 -31 86 -35 105 -11 47 -38 127 -56 168 -8 18 -14
41 -14 50 0 10 -9 43 -20 75 -11 31 -20 71 -20 90 0 18 -6 41 -14 52 -7 11
-16 45 -20 75 -4 30 -12 60 -17 67 -6 7 -11 34 -12 60 -2 37 2 48 13 48 18 0
38 -39 49 -100 14 -77 58 -107 96 -65 23 25 14 79 -20 110 -32 30 -34 76 -4
85 23 8 39 -7 39 -37 0 -19 29 -72 72 -132 27 -37 131 -115 154 -116 6 0 17
-6 23 -14 6 -7 48 -21 94 -31 129 -27 245 -11 337 47 25 15 55 32 67 38 37 15
190 168 218 216 14 24 26 61 27 81 0 21 3 42 5 46 9 15 48 2 51 -17z m-1583
-212 c3 -30 13 -71 21 -89 8 -19 14 -51 14 -70 0 -20 8 -57 19 -83 10 -26 27
-74 36 -107 10 -33 26 -82 36 -110 9 -27 25 -79 34 -115 26 -99 64 -208 96
-279 16 -35 29 -70 29 -78 0 -8 7 -27 15 -41 24 -44 55 -120 55 -134 0 -8 21
-63 46 -123 25 -61 52 -126 59 -145 7 -19 24 -56 37 -81 14 -26 28 -59 32 -74
4 -15 21 -57 38 -93 16 -37 39 -87 50 -112 40 -94 218 -454 261 -530 14 -25
42 -76 62 -115 20 -38 52 -97 71 -130 19 -33 42 -73 50 -90 8 -16 18 -37 24
-45 5 -8 37 -64 71 -125 35 -60 76 -129 93 -153 23 -32 27 -45 18 -54 -17 -17
-895 -16 -972 1 -30 7 -95 17 -145 22 -97 10 -252 34 -325 50 -159 35 -159 35
-136 122 10 34 21 94 26 132 4 39 15 84 24 100 9 17 16 55 16 85 1 30 7 66 15
80 8 14 14 43 15 66 0 22 6 63 14 90 8 27 20 109 26 183 6 74 17 165 25 203 8
38 15 100 15 137 0 38 7 88 15 111 10 27 15 80 15 146 0 56 6 131 14 166 8 35
18 115 21 178 4 63 13 135 20 160 8 25 17 72 20 105 3 33 11 81 17 107 10 41
9 52 -8 83 -41 77 -92 51 -120 -60 -7 -27 -17 -63 -22 -80 -20 -58 -41 -171
-47 -245 -3 -41 -12 -118 -20 -170 -8 -52 -19 -153 -25 -224 -14 -161 -27
-190 -66 -151 -9 8 -27 15 -40 15 -14 0 -41 7 -61 15 -19 8 -45 15 -57 15 -11
0 -34 9 -51 20 -16 11 -46 20 -65 20 -19 0 -52 9 -73 20 -20 11 -45 20 -54 20
-10 0 -27 7 -37 15 -11 8 -31 15 -45 15 -29 0 -178 69 -185 85 -2 6 18 49 45
95 26 47 53 94 59 105 5 11 28 47 50 80 22 33 56 92 75 130 20 39 42 79 48 90
14 24 67 112 84 140 37 61 78 127 113 180 22 33 45 71 52 85 7 14 23 36 37 50
13 14 37 45 53 69 61 96 321 371 351 371 10 0 17 -16 22 -56z m5294 -1375 c68
-22 97 -34 214 -88 37 -17 70 -31 75 -31 4 0 56 -25 115 -55 59 -30 125 -57
145 -61 20 -3 56 -20 79 -38 53 -39 113 -81 224 -154 139 -92 226 -153 318
-222 47 -36 96 -72 107 -80 37 -26 215 -171 300 -245 44 -38 107 -92 139 -120
32 -27 70 -61 84 -74 14 -13 41 -35 60 -49 18 -14 46 -49 63 -78 16 -29 44
-64 63 -78 18 -14 48 -47 66 -73 102 -149 129 -192 129 -204 0 -8 9 -29 20
-47 39 -64 -2 -70 -81 -13 -30 22 -81 59 -113 83 -33 24 -87 68 -120 99 -34
30 -115 99 -181 152 -66 53 -163 133 -215 177 -52 45 -139 117 -192 160 -54
44 -108 89 -120 100 -13 12 -45 37 -73 56 -27 18 -68 50 -90 69 -22 20 -92 75
-155 123 -63 47 -146 114 -185 147 -68 60 -130 109 -238 188 -28 21 -63 48
-78 61 -57 51 -151 106 -181 106 -36 0 -68 -24 -68 -51 0 -21 51 -74 91 -95
20 -10 29 -22 29 -39 0 -14 -3 -25 -7 -25 -9 0 -90 69 -176 150 -55 51 -158
172 -194 226 -8 13 -12 28 -8 34 10 17 84 11 154 -11z m1363 -4 c111 -14 203
-36 243 -58 11 -6 48 -25 83 -43 80 -41 211 -142 249 -191 84 -108 122 -200
147 -348 13 -83 13 -97 -3 -180 -26 -128 -83 -279 -107 -283 -12 -1 -49 26
-103 79 -47 45 -110 100 -140 122 -31 23 -81 64 -111 92 -59 55 -243 204 -288
232 -29 19 -35 24 -68 51 -31 25 -256 184 -344 242 -149 100 -169 115 -167
130 2 13 88 65 162 98 51 24 124 42 165 43 25 0 59 6 75 14 40 18 72 18 207 0z
m-3718 -241 c3 -9 6 -24 6 -34 0 -9 7 -23 15 -30 8 -7 15 -21 15 -31 0 -11 9
-36 20 -56 11 -21 20 -45 20 -54 0 -9 7 -22 15 -29 8 -7 15 -18 15 -24 0 -6 9
-29 19 -51 59 -120 91 -193 91 -202 0 -11 8 -28 51 -115 11 -20 19 -45 19 -56
0 -10 7 -27 15 -38 8 -10 15 -26 15 -34 0 -9 9 -33 20 -55 11 -22 20 -49 20
-60 0 -12 4 -25 10 -31 11 -11 48 -113 59 -164 4 -19 12 -44 18 -55 6 -11 14
-42 18 -70 4 -27 12 -59 18 -69 5 -11 15 -45 23 -75 7 -31 20 -87 28 -125 9
-38 20 -74 25 -80 4 -6 11 -36 14 -66 3 -30 12 -68 21 -85 9 -16 16 -50 16
-75 1 -25 7 -56 15 -70 8 -14 14 -41 15 -60 0 -20 9 -61 20 -93 11 -31 20 -69
20 -84 0 -16 7 -40 14 -55 8 -16 18 -49 22 -75 4 -27 18 -77 31 -113 14 -36
29 -78 35 -94 6 -16 26 -58 44 -93 19 -35 34 -72 34 -81 0 -9 7 -26 15 -36 8
-11 15 -28 15 -38 0 -10 9 -35 20 -55 11 -21 20 -51 20 -68 1 -16 7 -41 15
-55 19 -34 19 -82 -2 -125 -18 -38 -24 -40 -53 -25 -31 16 -59 -16 -67 -79
-10 -67 -33 -82 -33 -21 0 51 -15 80 -40 80 -22 0 -40 -28 -40 -64 0 -14 -4
-27 -9 -30 -5 -3 -13 -25 -19 -49 -14 -54 -75 -127 -107 -127 -37 0 -38 16 -2
47 19 15 44 42 56 58 23 32 23 31 22 259 l-1 79 -41 35 -40 35 6 61 c6 54 4
64 -15 89 -58 73 -137 94 -219 57 -50 -23 -64 -38 -91 -97 -10 -23 -28 -46
-39 -52 -20 -11 -51 -5 -51 9 0 24 125 215 177 271 34 36 66 76 71 90 11 29
-2 114 -29 181 -11 26 -19 53 -19 61 0 8 -7 20 -15 27 -8 7 -15 23 -15 35 0
12 -7 28 -15 35 -8 7 -15 19 -15 28 0 8 -9 34 -20 58 -11 24 -29 64 -40 88
-11 24 -20 48 -20 54 0 6 -6 23 -14 39 -8 15 -19 39 -25 53 -6 14 -15 32 -19
40 -5 8 -17 33 -27 55 -9 22 -25 58 -35 80 -10 22 -28 63 -40 90 -42 96 -53
120 -66 148 -8 16 -14 33 -14 39 0 6 -10 32 -21 57 -52 113 -59 129 -59 142 0
8 -7 23 -15 33 -8 11 -15 30 -15 42 0 12 -6 27 -14 33 -8 7 -18 27 -22 44 -3
17 -12 41 -19 52 -7 11 -16 34 -20 52 -3 17 -13 37 -21 44 -8 6 -14 19 -14 29
0 10 -6 23 -14 29 -8 7 -18 25 -21 41 -3 16 -13 34 -21 41 -8 6 -14 22 -14 34
0 12 -7 28 -15 35 -8 7 -15 18 -15 25 0 7 -9 24 -20 38 -11 14 -20 34 -20 45
0 11 -7 25 -15 32 -8 7 -15 20 -15 30 0 9 -9 29 -21 44 -28 36 -22 76 15 96
38 19 266 148 286 160 8 6 24 14 35 19 12 5 27 16 34 25 17 21 57 21 65 0z
m-3510 -41 c28 -9 71 -24 96 -34 25 -9 65 -20 90 -24 54 -9 100 -31 100 -48 0
-6 -7 -37 -15 -67 -8 -30 -15 -72 -15 -92 0 -21 -7 -70 -15 -110 -15 -76 -36
-192 -60 -338 -24 -151 -54 -243 -100 -315 -17 -27 -43 -70 -56 -95 -13 -25
-38 -63 -55 -85 -18 -22 -43 -60 -56 -85 -13 -25 -51 -85 -84 -133 -32 -49
-64 -96 -69 -106 -6 -10 -25 -38 -43 -62 -18 -24 -61 -86 -95 -137 -116 -176
-132 -199 -172 -256 -114 -164 -114 -162 -115 -261 0 -49 -5 -108 -10 -130
-24 -106 -40 -156 -82 -252 -10 -23 -18 -51 -18 -63 0 -11 -7 -37 -15 -57 -8
-19 -15 -48 -15 -62 0 -15 -7 -36 -15 -47 -15 -19 -15 -19 -30 1 -9 11 -13 29
-10 40 3 11 9 89 12 173 5 138 4 154 -12 172 -23 25 -71 26 -83 3 -5 -10 -12
-47 -16 -83 -3 -35 -10 -68 -15 -73 -5 -5 -20 3 -34 17 -29 29 -35 30 -71 16
-42 -16 -105 -125 -136 -236 -16 -55 -20 -101 -20 -216 0 -160 -3 -178 -31
-178 -31 0 -42 62 -37 221 3 79 10 164 16 189 6 25 18 74 27 110 9 36 20 83
26 105 12 50 71 170 124 255 23 36 59 94 81 128 21 35 53 86 71 113 17 27 54
93 81 147 27 53 70 138 95 189 26 50 47 96 47 101 0 6 16 42 35 81 19 39 35
73 35 75 0 7 131 283 175 368 19 38 35 75 35 84 0 8 16 43 35 75 19 33 35 68
35 78 0 10 25 68 55 129 30 62 55 118 55 125 0 7 6 21 14 32 7 11 16 40 20 65
4 24 11 49 15 55 11 13 46 139 84 300 7 33 19 70 25 82 7 12 12 38 12 58 0 44
15 75 37 75 8 0 38 -7 67 -17z m2661 -190 c3 -16 17 -46 29 -68 23 -39 25 -40
74 -39 28 1 60 9 73 18 41 28 73 21 94 -21 10 -21 22 -45 26 -53 5 -8 14 -26
20 -40 12 -30 46 -99 59 -120 5 -8 28 -55 51 -105 23 -49 46 -96 52 -103 5 -7
21 -45 35 -85 14 -40 31 -81 38 -92 8 -11 14 -30 14 -42 0 -13 9 -40 20 -60
11 -21 20 -43 20 -50 0 -6 6 -24 14 -40 7 -15 24 -50 36 -78 12 -27 29 -63 36
-78 8 -16 14 -35 14 -43 0 -8 9 -32 20 -52 10 -20 29 -59 40 -87 12 -27 28
-63 35 -80 8 -16 23 -52 35 -80 12 -27 28 -63 35 -80 7 -16 22 -51 34 -76 12
-25 21 -51 21 -56 0 -6 7 -16 15 -23 8 -7 15 -20 15 -29 0 -14 27 -77 52 -121
4 -8 13 -26 18 -40 6 -14 17 -40 25 -57 8 -18 21 -48 28 -65 8 -18 22 -49 31
-69 20 -41 15 -59 -26 -95 -34 -30 -79 -83 -112 -131 -31 -47 -46 -47 -46 -3
0 16 -6 47 -14 67 -8 21 -17 59 -20 86 -3 26 -12 61 -21 77 -8 16 -15 39 -15
50 0 12 -6 31 -12 43 -7 12 -18 42 -24 67 -14 52 -31 103 -50 145 -7 17 -16
48 -20 69 -4 22 -13 51 -20 65 -8 14 -14 33 -14 41 0 9 -9 33 -20 55 -11 22
-20 48 -20 60 0 11 -7 29 -15 39 -8 11 -15 28 -15 38 0 11 -8 36 -19 56 -43
86 -51 104 -51 114 0 5 -9 21 -20 35 -11 14 -20 34 -20 44 0 10 -24 42 -52 72
-72 73 -138 95 -238 78 -132 -21 -140 -18 -140 64 0 23 -6 58 -14 76 -7 19
-16 76 -20 127 -3 51 -10 101 -16 111 -5 10 -14 63 -19 117 -5 55 -14 117 -20
139 -6 22 -11 66 -11 98 0 32 -6 72 -14 90 -16 40 -29 123 -21 137 11 18 23
11 30 -17z m3618 -38 c38 -35 46 -58 25 -72 -7 -4 -21 -18 -31 -30 -16 -19
-17 -27 -7 -57 14 -42 93 -116 125 -116 25 0 57 39 65 80 6 32 41 38 67 12 10
-10 33 -29 51 -41 37 -26 39 -38 12 -91 -50 -98 -2 -288 113 -443 57 -78 103
-117 139 -117 14 0 50 14 81 30 65 34 101 37 139 12 55 -36 73 -71 72 -138 -1
-54 -5 -67 -33 -103 -67 -85 -127 -106 -249 -90 -55 8 -77 7 -88 -2 -24 -20
-16 -54 21 -88 40 -36 39 -30 20 -101 -20 -73 -20 -220 0 -267 8 -19 15 -42
15 -49 0 -32 -101 -164 -124 -164 -6 0 -38 -14 -70 -31 -58 -31 -223 -79 -269
-79 -37 0 -135 45 -157 72 -30 38 -26 67 10 79 40 14 54 67 47 176 l-6 82 42
29 c72 48 60 95 -25 98 -80 3 -164 19 -256 49 -76 24 -90 32 -148 92 -36 37
-74 87 -85 112 -20 43 -49 141 -49 161 0 17 36 11 60 -10 26 -22 33 -24 105
-20 57 3 134 38 153 71 11 18 12 26 1 45 -15 28 -44 31 -109 8 -42 -14 -48
-14 -110 7 -36 12 -68 27 -72 33 -13 20 -8 70 12 111 11 22 19 60 19 85 1 43
-13 71 -71 151 -19 26 -3 46 44 54 100 17 197 84 232 161 40 87 53 111 90 167
47 70 133 167 150 167 6 0 28 -16 49 -35z m-5587 -1214 c87 -12 222 -25 299
-31 77 -5 166 -14 199 -20 82 -15 527 1 703 25 28 4 44 2 50 -7 4 -7 8 -71 8
-143 1 -90 6 -149 18 -191 9 -34 21 -88 27 -120 20 -122 46 -236 72 -309 6
-16 16 -56 23 -88 7 -32 18 -63 23 -70 5 -7 13 -27 17 -45 4 -18 13 -45 21
-60 8 -15 14 -33 14 -40 0 -7 9 -30 20 -50 10 -20 29 -59 41 -87 13 -27 35
-70 51 -96 l27 -45 -25 -65 c-15 -35 -30 -68 -35 -74 -5 -5 -9 -19 -9 -31 0
-12 -7 -27 -15 -34 -8 -7 -15 -19 -15 -28 0 -16 -10 -38 -82 -192 -44 -94 -56
-121 -88 -195 -37 -86 -53 -119 -61 -135 -5 -8 -14 -26 -19 -40 -14 -34 -41
-92 -51 -110 -5 -8 -14 -26 -19 -40 -6 -14 -17 -37 -25 -52 -8 -14 -15 -34
-15 -43 0 -9 -6 -29 -14 -43 -15 -28 -38 -80 -76 -172 -21 -49 -45 -105 -70
-165 -5 -11 -21 -49 -35 -85 -14 -36 -32 -78 -40 -95 -8 -16 -24 -57 -37 -90
-12 -33 -28 -69 -35 -80 -7 -11 -13 -29 -13 -40 0 -11 -6 -29 -14 -40 -7 -11
-17 -36 -21 -55 -7 -32 -15 -54 -50 -135 -7 -16 -18 -48 -23 -70 -12 -48 -30
-100 -48 -140 -7 -16 -18 -48 -23 -70 -5 -22 -14 -53 -20 -70 -12 -34 -38
-115 -51 -160 -5 -16 -16 -59 -25 -95 -9 -36 -20 -70 -25 -75 -5 -6 -12 -31
-16 -55 -4 -25 -22 -85 -40 -133 -19 -49 -34 -97 -34 -107 0 -10 -9 -42 -19
-72 -10 -29 -27 -82 -36 -118 -10 -36 -23 -85 -31 -110 -8 -25 -20 -70 -28
-100 -7 -30 -21 -80 -30 -110 -9 -30 -23 -82 -30 -115 -7 -33 -17 -69 -23 -80
-6 -11 -13 -38 -17 -60 -4 -22 -13 -58 -21 -80 -24 -72 -67 -229 -77 -285 -6
-30 -14 -60 -19 -66 -5 -7 -16 -40 -24 -75 -8 -35 -24 -100 -35 -144 -12 -44
-27 -105 -35 -135 -7 -30 -23 -89 -35 -130 -11 -41 -27 -100 -34 -130 -8 -30
-21 -73 -30 -95 -8 -22 -15 -50 -16 -61 0 -12 -8 -32 -18 -44 -16 -20 -22 -21
-57 -12 -22 6 -90 11 -152 11 -84 0 -119 4 -143 16 -18 9 -65 20 -104 25 -39
4 -84 12 -101 18 -16 6 -64 20 -105 32 -41 13 -90 29 -108 36 -18 8 -40 14
-50 14 -9 0 -30 9 -47 20 -16 11 -41 20 -55 20 -14 0 -34 7 -44 15 -11 8 -27
15 -36 15 -8 0 -32 9 -53 20 -20 11 -45 20 -56 20 -10 0 -24 7 -31 15 -7 8
-19 15 -27 15 -19 0 -130 53 -176 84 -21 14 -41 26 -46 26 -4 0 -18 9 -31 20
-13 11 -29 20 -37 20 -23 0 -73 42 -73 62 0 9 9 37 20 60 10 24 30 72 44 108
14 36 50 126 81 200 32 74 63 155 70 180 7 25 24 68 38 95 13 28 28 66 32 85
4 19 13 42 19 50 7 8 23 46 35 83 12 37 38 101 57 143 19 41 34 81 34 88 0 12
19 60 56 143 8 17 14 36 14 42 0 6 13 37 29 69 16 31 32 73 36 92 4 19 13 44
20 56 7 11 18 36 23 55 6 19 19 57 30 84 53 134 64 163 74 195 5 19 14 40 18
45 5 6 20 46 34 90 15 44 30 89 35 100 9 20 31 84 56 165 31 99 86 254 94 264
4 6 11 22 14 36 3 14 17 57 32 95 14 39 31 88 36 110 6 21 14 44 18 50 4 5 13
28 19 50 12 46 38 121 52 150 11 24 37 96 52 145 6 19 17 44 24 55 8 11 14 27
14 36 0 15 17 59 56 146 8 17 14 38 14 47 0 9 9 33 20 53 11 21 20 45 20 53 0
8 7 24 15 34 8 11 15 27 15 35 0 15 25 84 56 158 8 17 14 39 14 50 0 10 6 27
14 38 7 11 18 36 24 55 16 53 41 121 57 158 8 17 21 47 29 65 7 17 23 53 35
78 11 25 21 52 21 59 0 6 6 24 14 38 7 15 24 52 36 82 12 30 28 68 36 83 8 16
14 36 14 44 0 9 15 48 34 87 19 39 39 88 46 108 6 21 16 40 21 43 5 4 9 13 9
22 0 8 9 26 20 40 11 14 20 40 20 58 0 18 7 38 15 45 8 7 15 20 15 29 0 9 9
30 20 46 11 17 20 39 20 51 0 11 7 29 15 40 8 10 15 27 15 37 0 9 9 34 20 54
11 21 20 47 20 58 0 11 4 26 9 34 10 16 -12 71 -28 71 -20 0 -92 -86 -118
-138 -15 -32 -37 -73 -49 -93 -13 -20 -35 -65 -49 -100 -15 -35 -39 -91 -54
-124 -16 -33 -32 -71 -36 -85 -4 -14 -23 -59 -42 -100 -19 -41 -41 -91 -50
-110 -8 -19 -22 -48 -29 -63 -8 -16 -14 -32 -14 -36 0 -5 -14 -39 -32 -77 -18
-38 -37 -85 -43 -104 -14 -48 -28 -44 -37 10 -5 25 -13 68 -18 95 -14 69 -33
490 -33 720 0 185 24 615 36 645 3 8 8 48 10 88 5 83 18 105 51 92 12 -4 94
-17 182 -29z m1824 -300 c0 -10 9 -26 20 -36 11 -10 20 -24 20 -30 0 -7 7 -18
15 -25 15 -13 21 -50 8 -50 -15 1 -83 120 -83 145 0 15 4 24 10 20 6 -3 10
-14 10 -24z m4887 -334 c15 -13 44 -33 64 -45 40 -24 115 -101 144 -147 10
-17 27 -39 37 -50 35 -41 197 -363 223 -443 4 -13 20 -50 36 -83 35 -69 57
-155 43 -169 -5 -5 -47 -20 -94 -34 -47 -14 -130 -41 -185 -62 -55 -20 -118
-41 -140 -46 -22 -6 -53 -16 -70 -24 -16 -7 -48 -18 -70 -23 -81 -20 -150 -39
-167 -46 -29 -12 -58 12 -58 48 0 18 -9 58 -20 90 -11 31 -20 74 -20 95 0 21
-7 61 -15 88 -32 104 -29 326 5 439 38 123 55 173 66 190 6 11 15 31 19 45 12
38 91 155 121 179 34 27 46 26 81 -2z m-1344 -46 c20 -78 99 -141 214 -170 95
-24 172 -27 211 -7 15 7 43 17 62 21 19 4 59 19 88 33 29 13 56 22 59 18 4 -4
1 -21 -6 -39 -40 -98 -64 -439 -41 -575 6 -37 15 -94 19 -128 5 -33 14 -69 20
-80 14 -25 51 -139 51 -159 0 -37 155 -350 225 -455 66 -99 149 -204 206 -259
47 -47 140 -127 154 -132 6 -3 27 -15 47 -27 29 -18 39 -32 43 -60 3 -20 11
-55 17 -77 10 -35 25 -111 44 -220 7 -38 -15 -60 -71 -74 -37 -9 -55 -14 -137
-42 -18 -6 -64 -17 -103 -24 -38 -7 -83 -18 -98 -24 -16 -6 -48 -11 -72 -11
-25 0 -64 -6 -87 -14 -24 -8 -115 -19 -203 -25 -88 -6 -202 -14 -254 -17 -98
-8 -435 10 -536 27 -33 6 -105 15 -160 20 -55 6 -113 15 -130 21 -16 5 -48 13
-71 17 -22 4 -51 15 -64 24 -14 9 -39 17 -56 17 -18 0 -34 6 -36 13 -3 6 5 64
18 127 12 63 23 138 23 166 1 29 8 65 16 80 8 16 15 54 15 84 0 30 5 73 11 95
6 22 15 81 21 130 5 50 16 109 24 133 8 23 14 65 14 93 0 27 6 80 14 117 8 37
22 108 31 157 9 50 22 122 30 160 7 39 18 99 25 135 6 36 16 76 22 90 6 14 14
57 18 95 5 39 16 84 24 100 9 17 16 38 16 47 0 10 6 32 14 50 7 18 24 60 36
93 13 33 38 91 57 129 18 37 33 72 33 78 0 42 155 290 179 286 8 -2 19 -19 24
-37z m-633 -279 c0 -21 -8 -63 -17 -93 -15 -45 -18 -95 -18 -310 l1 -256 33
-62 c27 -51 32 -68 26 -101 -7 -41 -27 -57 -47 -37 -28 28 -195 174 -220 193
-14 11 -61 52 -102 89 -79 71 -92 99 -59 126 20 17 192 230 245 303 20 28 55
71 78 96 22 25 43 55 46 68 10 38 34 27 34 -16z m-1482 -267 c2 -14 -20 -42
-73 -93 -75 -72 -90 -103 -63 -130 20 -20 45 -14 113 28 72 44 86 47 106 24
12 -14 9 -20 -16 -40 -45 -36 -144 -94 -162 -94 -23 0 -69 37 -92 74 -37 60
-30 79 65 173 86 84 116 99 122 58z m-4924 -4 c12 -20 -42 -111 -66 -111 -15
0 -8 41 15 80 21 39 40 50 51 31z m-79 -180 c4 -24 2 -48 -5 -61 -11 -20 -13
-21 -27 -7 -14 14 -14 22 -3 61 7 25 16 46 20 46 5 0 11 -18 15 -39z m-11
-157 c3 -9 -1 -37 -10 -62 -9 -27 -13 -62 -10 -82 5 -36 -7 -70 -20 -57 -13
12 -4 201 9 209 18 11 24 10 31 -8z m5116 -18 c0 -29 -76 -96 -109 -96 -37 0
-24 34 30 78 59 48 79 52 79 18z m576 -17 c16 -17 58 -54 94 -81 77 -59 165
-141 199 -187 20 -26 31 -31 55 -29 61 6 72 79 21 134 -27 29 -28 34 -19 58
16 42 100 -7 248 -144 28 -27 63 -58 79 -70 15 -12 27 -30 27 -40 0 -33 -177
-228 -295 -325 -47 -38 -52 -40 -120 -40 -75 0 -63 -6 -192 90 -57 42 -346
343 -376 392 -10 15 2 43 19 43 25 0 171 153 183 193 15 46 37 48 77 6z m3249
-266 c3 -32 13 -78 20 -103 24 -79 48 -193 56 -265 4 -38 13 -101 18 -140 6
-38 11 -133 11 -210 1 -130 7 -251 29 -560 5 -79 14 -130 24 -150 9 -16 17
-43 17 -60 0 -16 9 -48 20 -70 11 -22 19 -50 20 -61 0 -12 7 -38 15 -57 18
-43 21 -277 5 -308 -19 -34 -40 -23 -40 20 0 64 -15 91 -49 91 -38 0 -43 -8
-52 -89 -16 -135 -49 -231 -80 -231 -14 0 -10 42 6 70 9 17 14 56 15 117 0 88
-1 93 -26 109 -40 27 -55 3 -70 -116 -15 -111 -46 -210 -75 -235 -37 -35 -52
12 -21 68 14 27 17 59 17 197 0 163 0 165 -28 208 -16 25 -35 42 -46 42 -20 0
-71 -53 -71 -73 0 -24 -49 -132 -64 -142 -30 -19 -39 8 -23 66 9 30 21 77 27
104 6 28 17 76 25 107 7 31 27 78 44 103 17 25 31 50 31 55 0 4 16 32 35 62
35 51 35 55 29 123 -3 39 -12 89 -20 113 -8 23 -14 66 -14 95 -1 30 -7 60 -15
71 -9 11 -15 41 -15 68 0 27 -7 65 -15 85 -8 19 -18 68 -21 107 -4 39 -13 86
-20 105 -8 18 -14 52 -14 75 0 22 -9 70 -20 104 -11 35 -20 81 -20 103 0 21
-6 58 -14 81 -8 24 -26 88 -39 143 -14 55 -28 107 -31 116 -10 24 25 48 89 60
33 6 68 17 79 25 11 8 30 14 42 14 26 0 130 37 159 57 31 21 61 -20 70 -94z
m-585 -93 c11 -11 20 -30 20 -42 0 -13 3 -41 6 -63 l6 -40 -26 28 c-14 15 -26
34 -26 41 0 8 -7 19 -15 26 -15 13 -20 51 -8 63 11 11 22 8 43 -13z m-5096
-222 c4 -34 14 -80 22 -102 9 -23 19 -54 24 -71 5 -16 21 -61 35 -100 15 -38
31 -83 35 -100 14 -47 45 -128 58 -152 7 -12 12 -28 12 -35 0 -8 16 -44 35
-81 19 -37 35 -72 35 -78 0 -31 229 -484 291 -577 16 -24 29 -47 29 -52 0 -5
6 -15 13 -22 7 -7 25 -38 41 -68 16 -30 41 -74 57 -98 16 -24 29 -49 29 -57 0
-8 4 -16 9 -19 4 -3 32 -47 61 -98 30 -51 57 -95 60 -98 4 -3 20 -27 36 -55
15 -27 34 -56 41 -63 7 -7 13 -18 13 -24 0 -5 13 -27 30 -48 16 -20 34 -48 40
-61 11 -26 54 -92 135 -208 28 -40 59 -87 70 -105 25 -40 78 -117 149 -216
144 -199 149 -208 143 -245 -3 -20 -22 -62 -41 -94 -20 -32 -36 -64 -36 -70 0
-6 -4 -11 -9 -11 -4 0 -28 -28 -51 -62 -51 -73 -323 -347 -395 -398 -28 -19
-66 -43 -85 -54 -19 -10 -61 -34 -93 -52 -32 -19 -70 -37 -85 -40 -15 -4 -38
-12 -52 -19 -86 -43 -122 -55 -162 -55 -24 0 -49 -5 -55 -11 -18 -18 -54 0
-68 34 -7 18 -26 50 -42 72 -16 22 -32 47 -36 55 -4 8 -23 42 -42 75 -20 33
-43 74 -51 90 -8 17 -26 48 -39 70 -13 22 -33 56 -43 75 -10 19 -40 76 -67
125 -96 175 -125 230 -135 255 -5 14 -14 32 -19 40 -5 8 -48 92 -96 185 -47
94 -90 177 -94 185 -14 26 -78 163 -98 209 -10 24 -35 78 -55 119 -21 41 -38
83 -38 92 0 10 -7 23 -15 30 -8 7 -15 19 -15 27 0 8 -10 33 -22 56 -41 80 -48
95 -48 107 0 7 -9 32 -20 56 -11 24 -29 64 -40 88 -11 24 -27 49 -35 56 -19
16 -19 40 -1 66 8 11 18 38 22 60 3 21 13 51 20 66 8 15 14 36 14 48 0 11 9
37 20 57 11 21 20 45 20 53 0 9 7 25 15 36 8 10 15 28 15 39 0 11 9 37 20 58
11 20 20 45 20 56 0 10 7 24 15 31 8 7 15 21 15 32 0 10 9 36 20 58 11 22 20
48 20 58 0 11 7 25 15 32 8 7 15 20 15 29 0 9 9 33 20 54 11 20 20 44 20 53 0
9 6 28 13 42 39 78 57 118 57 130 0 8 6 26 14 40 36 68 96 203 96 216 0 7 7
19 15 26 8 7 15 21 15 32 0 10 9 36 20 56 10 20 21 44 24 52 3 8 10 22 14 30
32 56 52 101 52 114 0 18 29 48 39 41 5 -2 12 -33 15 -67z m4066 -1748 c9 -19
27 -54 39 -77 11 -23 21 -51 21 -62 0 -11 4 -23 10 -26 5 -3 14 -25 20 -48 6
-23 17 -55 24 -72 37 -82 54 -155 38 -155 -20 0 -162 332 -162 381 0 8 -7 24
-15 35 -17 23 -20 67 -4 62 6 -2 19 -19 29 -38z m1298 -669 c7 -4 28 -37 45
-72 29 -57 88 -149 182 -284 17 -23 74 -107 129 -185 l98 -142 -38 -56 c-21
-32 -61 -80 -89 -107 -83 -83 -247 -182 -283 -170 -11 3 -36 27 -57 53 -20 26
-62 74 -94 107 -31 33 -86 96 -121 140 -36 44 -72 87 -81 96 -16 16 -73 95
-128 177 -13 20 -35 57 -48 82 -13 25 -28 52 -33 60 -11 18 -50 107 -50 114 0
12 78 44 124 50 27 3 54 10 60 15 6 5 29 12 51 16 22 4 50 13 62 21 12 8 29
14 38 14 8 0 32 9 52 20 21 11 48 20 60 20 13 0 40 9 60 20 43 23 43 23 61 11z
m-2103 -86 c28 -8 73 -19 100 -25 64 -12 159 -34 210 -49 22 -6 55 -11 73 -11
18 0 35 -6 38 -13 2 -7 -9 -47 -26 -88 -16 -41 -30 -82 -30 -92 0 -11 -6 -31
-14 -45 -7 -15 -24 -61 -36 -102 -12 -41 -28 -91 -36 -110 -8 -19 -18 -57 -23
-85 -9 -52 -24 -99 -47 -150 -7 -16 -18 -50 -23 -74 -5 -24 -14 -48 -20 -54
-6 -6 -11 -20 -11 -32 0 -11 -9 -47 -20 -80 -10 -33 -27 -87 -36 -120 -9 -33
-25 -79 -35 -103 -11 -23 -19 -49 -19 -57 0 -22 -42 -56 -60 -49 -8 4 -44 11
-79 15 -35 5 -68 13 -75 17 -6 5 -33 13 -61 17 -27 4 -58 13 -69 21 -11 8 -30
14 -41 14 -25 0 -122 33 -136 47 -6 6 -2 32 11 72 11 35 20 74 20 88 0 13 6
39 14 58 8 19 18 55 22 81 4 26 13 59 20 73 8 14 14 37 14 51 0 14 6 37 14 52
8 14 17 50 21 80 4 29 13 64 20 78 7 14 15 48 19 75 3 28 19 93 35 145 16 52
34 118 40 145 9 50 23 106 44 179 17 58 28 65 84 54 26 -5 71 -16 98 -23z
m2686 -762 c13 -21 46 -68 73 -105 28 -37 71 -95 96 -130 25 -34 75 -95 113
-135 37 -39 67 -80 67 -90 -1 -47 -21 -153 -35 -179 -8 -16 -15 -37 -15 -47 0
-40 -117 -275 -141 -282 -10 -3 -26 -2 -36 3 -37 18 -122 42 -151 42 -17 0
-42 4 -56 10 -24 9 -26 13 -20 50 6 37 -10 148 -25 176 -3 7 -20 29 -38 50
-35 42 -71 88 -160 203 -32 41 -68 86 -80 99 -13 14 -23 30 -23 36 1 6 24 22
53 36 100 47 229 155 288 243 22 31 46 57 54 57 7 0 24 -17 36 -37z m-4477
-10 c11 -15 39 -48 61 -73 61 -69 82 -113 67 -142 -27 -52 -76 -136 -103 -175
-16 -24 -42 -63 -59 -87 -52 -76 -225 -250 -241 -243 -8 4 -27 16 -44 27 -16
10 -61 28 -98 40 -73 23 -89 40 -63 69 21 23 21 118 1 145 -8 11 -15 27 -15
36 0 18 50 67 130 128 110 84 230 194 293 270 33 39 43 40 71 5z m1350 -602
c73 -34 226 -77 336 -95 66 -10 75 -14 78 -34 2 -13 -3 -33 -11 -45 -7 -12
-17 -42 -21 -66 -3 -24 -13 -56 -21 -72 -8 -15 -15 -38 -15 -51 0 -13 -6 -32
-14 -43 -7 -11 -17 -36 -20 -55 -4 -19 -13 -48 -21 -65 -7 -16 -18 -50 -25
-75 -6 -25 -17 -69 -25 -99 -8 -30 -19 -59 -24 -64 -6 -6 -11 -26 -11 -43 0
-31 -21 -64 -40 -64 -5 0 -83 -7 -174 -16 -111 -10 -171 -12 -183 -5 -10 5
-29 31 -42 58 -37 79 -53 107 -73 130 -22 23 -21 27 22 83 32 41 70 129 70
162 0 13 7 32 15 42 8 11 15 31 15 45 1 14 8 44 16 66 9 22 19 60 24 85 4 25
13 59 19 75 6 17 13 46 16 65 6 41 40 100 57 100 6 0 30 -9 52 -19z m-1858
-256 c10 -8 29 -15 42 -15 25 0 30 -24 8 -46 -27 -27 -151 -83 -198 -89 -71
-11 -71 9 -3 94 51 65 59 71 94 71 20 0 46 -7 57 -15z m-3608 -39 c50 -25 103
-46 118 -46 9 0 30 -7 47 -14 44 -21 145 -52 189 -60 52 -9 108 -34 114 -51 3
-7 -12 -54 -34 -103 -22 -50 -43 -105 -47 -123 -4 -19 -11 -38 -15 -44 -4 -5
-22 -58 -38 -117 -17 -59 -38 -121 -47 -138 -15 -29 -19 -31 -52 -25 -19 3
-49 12 -67 19 -17 7 -56 21 -86 31 -30 9 -80 28 -110 42 -30 14 -71 32 -90 40
-19 9 -42 20 -50 24 -8 5 -29 15 -47 23 -49 22 -73 52 -73 90 0 33 -23 92 -58
149 -17 27 -16 29 7 48 13 10 36 19 53 19 64 0 110 42 182 168 27 45 55 82 63
82 8 0 27 -6 41 -14z m-701 -231 c65 -7 103 -31 103 -64 0 -10 7 -24 15 -31 8
-7 15 -19 15 -26 0 -19 -54 -18 -70 1 -7 8 -17 15 -23 15 -16 0 -144 88 -150
103 -8 21 1 27 27 18 11 -5 49 -12 83 -16z m9306 -37 c24 -12 22 -24 -10 -56
-43 -44 -107 -72 -163 -72 -55 0 -66 9 -45 36 8 10 15 29 15 42 0 13 10 33 23
46 20 20 30 22 92 18 39 -2 78 -8 88 -14z m-9748 -133 c32 -26 23 -33 -20 -13
-14 6 -25 17 -25 25 0 19 11 16 45 -12z m115 -60 c7 -8 16 -15 20 -15 5 0 27
-12 50 -27 36 -24 39 -28 21 -31 -19 -3 -123 57 -137 79 -9 15 33 10 46 -6z
m5991 -47 c16 -18 29 -41 29 -52 0 -17 -5 -18 -67 -12 -150 15 -202 47 -100
61 28 4 61 14 72 21 27 20 32 18 66 -18z m-5826 -49 c10 -14 1 -21 -19 -13 -9
3 -13 10 -10 15 7 12 21 11 29 -2z m182 -90 c24 -11 43 -25 43 -29 0 -5 14
-11 30 -15 17 -4 30 -11 30 -16 0 -14 -24 -11 -46 6 -10 8 -28 15 -40 15 -12
0 -30 8 -42 18 -11 9 -29 22 -39 29 -33 22 15 16 64 -8z m173 -95 c0 -2 -7 -4
-15 -4 -8 0 -15 4 -15 10 0 5 7 7 15 4 8 -4 15 -8 15 -10z m88 -35 c26 -11 63
-27 82 -36 40 -18 94 -42 165 -73 28 -11 57 -26 65 -31 8 -5 27 -14 43 -20 25
-10 38 -29 19 -29 -27 0 -124 36 -165 61 -27 17 -63 32 -80 36 -18 3 -43 13
-57 21 -14 9 -47 28 -75 43 -27 14 -51 31 -53 38 -5 15 2 14 56 -10z"/>
<path d="M7848 14362 c-32 -22 -38 -32 -38 -72 0 -55 10 -78 37 -85 39 -9 62
3 83 45 25 49 25 61 0 92 -25 33 -53 40 -82 20z"/>
<path d="M7682 14278 c-6 -6 -12 -34 -12 -61 0 -52 25 -104 80 -166 29 -33 30
-35 13 -53 -10 -11 -32 -26 -50 -33 -42 -18 -45 -60 -7 -89 27 -19 43 -18 104
6 134 54 154 123 64 218 -25 26 -64 79 -87 116 -44 71 -76 91 -105 62z"/>
<path d="M7351 14233 c-41 -51 -39 -110 3 -139 46 -29 105 23 106 93 0 32 -5
45 -22 57 -33 23 -64 19 -87 -11z"/>
<path d="M7382 13797 c-29 -31 -28 -38 12 -78 42 -41 104 -73 173 -89 52 -12
54 -11 116 23 64 36 94 73 84 102 -10 25 -34 29 -71 11 -21 -10 -60 -16 -105
-16 -66 0 -74 3 -117 35 -54 41 -63 43 -92 12z"/>
<path d="M11680 10557 c-13 -7 -30 -23 -36 -36 -6 -12 -17 -28 -23 -34 -31
-31 9 -107 56 -107 25 0 90 69 99 106 5 18 1 34 -13 52 -23 31 -48 37 -83 19z"/>
<path d="M12454 10005 c-22 -34 -12 -57 23 -53 34 4 57 53 33 68 -24 15 -39
12 -56 -15z"/>
</g>
</svg>
